<svg width="24" height="24" viewBox="0 0 24 24" fill="none" xmlns="http://www.w3.org/2000/svg">
<path fill-rule="evenodd" clip-rule="evenodd" d="M3 20C3 19.4477 3.44772 19 4 19H20C20.5523 19 21 19.4477 21 20C21 20.5523 20.5523 21 20 21H4C3.44772 21 3 20.5523 3 20Z" fill="#A8B3C1"/>
<path d="M14 5C14 3.89543 14.8954 3 16 3C17.1046 3 18 3.89543 18 5V15C18 16.1046 17.1046 17 16 17C14.8954 17 14 16.1046 14 15V5Z" fill="#A8B3C1"/>
<path d="M6 11C6 9.89543 6.89543 9 8 9C9.10457 9 10 9.89543 10 11V15C10 16.1046 9.10457 17 8 17C6.89543 17 6 16.1046 6 15V11Z" fill="#5E6A7D"/>
</svg>
