<svg width="24" height="24" viewBox="0 0 24 24" fill="none" xmlns="http://www.w3.org/2000/svg">
<path d="M7.93164 5.11021L5.99023 4.00659C5.23987 4.57164 4.57166 5.2399 4.00659 5.99026L5.11023 7.93167C4.73193 8.57098 4.44006 9.2675 4.25073 10.0051L2.09753 10.5975C2.0332 11.0558 2 11.524 2 12C2 12.476 2.0332 12.9442 2.09753 13.4025L4.25073 13.9949C4.44006 14.7325 4.73193 15.429 5.11023 16.0683L4.00659 18.0097C4.57166 18.7601 5.23987 19.4284 5.99023 19.9934L7.93164 18.8898C8.57092 19.2681 9.26746 19.56 10.0051 19.7493L10.5975 21.9024C11.0558 21.9667 11.524 22 12 22C12.476 22 12.9442 21.9667 13.4025 21.9024L13.9949 19.7493C14.7325 19.56 15.4291 19.2681 16.0684 18.8898L18.0098 19.9934C18.7601 19.4284 19.4283 18.7601 19.9934 18.0097L18.8898 16.0683C19.2681 15.429 19.5599 14.7325 19.7493 13.9949L21.9025 13.4025C21.9668 12.9442 22 12.476 22 12C22 11.524 21.9668 11.0558 21.9025 10.5975L19.7493 10.0051C19.5599 9.2675 19.2681 8.57098 18.8898 7.93167L19.9934 5.99026C19.4283 5.2399 18.7601 4.57164 18.0098 4.00659L16.0684 5.11021C15.4291 4.7319 14.7325 4.44003 13.9949 4.2507L13.4025 2.09758C12.9442 2.03325 12.476 2 12 2C11.524 2 11.0558 2.03325 10.5975 2.09758L10.0051 4.2507C9.26746 4.44003 8.57092 4.73189 7.93164 5.11021Z" fill="#5E6A7D"/>
<circle cx="12" cy="12" r="3" fill="#A8B3C1"/>
</svg>
