<svg width="24" height="24" viewBox="0 0 24 24" fill="none" xmlns="http://www.w3.org/2000/svg">
<path d="M11.107 2.5664C11.4599 1.8112 12.5401 1.8112 12.893 2.5664L15.1168 7.32534C15.2603 7.63237 15.5532 7.8439 15.8914 7.88463L21.1326 8.51595C21.9644 8.61613 22.2982 9.63723 21.6846 10.2042L17.8177 13.7767C17.5682 14.0071 17.4563 14.3494 17.5218 14.6816L18.5373 19.8307C18.6985 20.6478 17.8245 21.2789 17.0923 20.8741L12.4787 18.3231C12.1811 18.1585 11.8189 18.1585 11.5213 18.3231L6.90765 20.8741C6.1755 21.2789 5.30153 20.6478 5.46268 19.8307L6.47817 14.6816C6.54369 14.3494 6.43179 14.0071 6.18231 13.7767L2.31543 10.2042C1.70179 9.63723 2.03562 8.61613 2.86736 8.51595L8.10861 7.88463C8.44676 7.8439 8.73971 7.63237 8.88318 7.32534L11.107 2.5664Z" fill="#5E6A7D"/>
</svg>
