<svg width="24" height="24" viewBox="0 0 24 24" fill="none" xmlns="http://www.w3.org/2000/svg">
<path d="M19.6641 8.1094C20.4987 8.6658 21 9.60249 21 10.6056V18.75C21 19.9926 19.9926 21 18.75 21C18.3358 21 18 20.6642 18 20.25V12C18 11.4477 17.5523 11 17 11H7C6.44772 11 6 11.4477 6 12V20.25C6 20.6642 5.66421 21 5.25 21C4.00736 21 3 19.9926 3 18.75V10.6056C3 9.60249 3.5013 8.6658 4.3359 8.1094L10.3359 4.1094C11.3436 3.4376 12.6564 3.4376 13.6641 4.1094L19.6641 8.1094Z" fill="#5E6A7D"/>
<rect x="8" y="13" width="8" height="2" rx="1" fill="#A8B3C1"/>
<rect x="8" y="16" width="8" height="2" rx="1" fill="#A8B3C1"/>
<rect x="8" y="19" width="8" height="2" rx="1" fill="#A8B3C1"/>
</svg>
