<svg width="24" height="24" viewBox="0 0 24 24" fill="none" xmlns="http://www.w3.org/2000/svg">
<g clip-path="url(#clip0)">
<path d="M11.9998 7.50011C13.2424 7.50011 14.2498 6.49277 14.2498 5.25015C14.2498 4.00753 13.2424 3.00018 11.9998 3.00018C10.7572 3.00018 9.74985 4.00753 9.74985 5.25015C9.74985 6.49277 10.7572 7.50011 11.9998 7.50011Z" fill="#A8B3C1"/>
<path d="M15.3703 13.6155L14.8595 9.63754C14.8022 9.06043 14.3207 8.62506 13.7413 8.62506H13.1248C12.9752 8.62506 12.8323 8.68468 12.7266 8.78931L11.9998 9.51605L11.2731 8.78931C11.1673 8.68468 11.0245 8.62506 10.8748 8.62506H10.2595C9.67899 8.62506 9.1975 9.06043 9.14125 9.62292L8.62939 13.6166C8.60914 13.7763 8.65864 13.9383 8.76551 14.0587C8.87238 14.1802 9.02538 14.25 9.18738 14.25H9.79487L10.2651 19.9874C10.3214 20.5634 10.804 20.9998 11.3845 20.9998H12.6163C13.1968 20.9998 13.6783 20.5634 13.7368 19.9772L14.2059 14.25H14.8123C14.9743 14.25 15.1273 14.1802 15.2341 14.0587C15.3421 13.9383 15.3916 13.7763 15.3703 13.6155Z" fill="#A8B3C1"/>
<path d="M17.6247 7.50011C18.8673 7.50011 19.8746 6.49277 19.8746 5.25015C19.8746 4.00753 18.8673 3.00018 17.6247 3.00018C16.3821 3.00018 15.3747 4.00753 15.3747 5.25015C15.3747 6.49277 16.3821 7.50011 17.6247 7.50011Z" fill="#5E6A7D"/>
<path d="M6.3749 3.00018C5.13404 3.00018 4.12494 4.00929 4.12494 5.25015C4.12494 6.491 5.13404 7.50011 6.3749 7.50011C7.61462 7.50011 8.62485 6.491 8.62485 5.25015C8.62485 4.00929 7.61462 3.00018 6.3749 3.00018Z" fill="#5E6A7D"/>
<path d="M20.9952 13.6155L20.4844 9.63867C20.427 9.06043 19.9467 8.62506 19.3662 8.62506H18.7497C18.6001 8.62506 18.4572 8.68468 18.3515 8.78931L17.6247 9.51605L16.898 8.78931C16.7922 8.68468 16.6494 8.62506 16.5009 8.62506H15.8844C15.8146 8.62506 15.7516 8.64981 15.6853 8.66219C15.8304 8.91868 15.944 9.19655 15.9778 9.50817L16.4874 13.4726C16.5504 13.9552 16.3996 14.4412 16.0756 14.8068C15.9226 14.9823 15.7269 15.1061 15.5176 15.2028L15.8911 18.8624C15.9485 19.4395 16.43 19.8749 17.0105 19.8749H18.2423C18.8228 19.8749 19.3043 19.4384 19.3628 18.8523L19.8308 14.25H20.4372C20.5992 14.25 20.7522 14.1802 20.859 14.0587C20.967 13.9383 21.0165 13.7763 20.9952 13.6155Z" fill="#5E6A7D"/>
<path d="M7.92059 14.8012C7.60109 14.4401 7.45259 13.9552 7.51334 13.4749L8.02521 9.48005C8.05446 9.1808 8.16471 8.91081 8.30533 8.66106C8.24233 8.64981 8.18271 8.62506 8.11633 8.62506H7.49984C7.35022 8.62506 7.20735 8.68468 7.1016 8.78931L6.37486 9.51605L5.64813 8.78931C5.54238 8.68468 5.39951 8.62506 5.25101 8.62506H4.63448C4.05399 8.62506 3.5725 9.06043 3.51625 9.62292L3.00439 13.6166C2.98414 13.7763 3.03364 13.9383 3.14051 14.0587C3.24738 14.1802 3.4015 14.25 3.56238 14.25H4.16987L4.64011 18.8624C4.69636 19.4384 5.17897 19.8749 5.75946 19.8749H6.99132C7.57181 19.8749 8.0533 19.4384 8.1118 18.8523L8.48529 15.2017C8.27495 15.1038 8.07808 14.9789 7.92059 14.8012Z" fill="#5E6A7D"/>
</g>
<defs>
<clipPath id="clip0">
<rect width="18" height="18" fill="white" transform="translate(3 3)"/>
</clipPath>
</defs>
</svg>
