<svg width="120" height="120" viewBox="0 0 120 120" fill="none" xmlns="http://www.w3.org/2000/svg">
<g clip-path="url(#clip0)">
<path d="M65.91 46.2097C61.3329 46.2097 41.6817 46.6887 29.0323 67.004V46.2097C29.0323 33.4016 19.2656 22.9839 7.25806 22.9839C3.25025 22.9839 0 26.4508 0 30.7258C0 35.0008 3.25025 38.4677 7.25806 38.4677C11.2591 38.4677 14.5161 41.9419 14.5161 46.2097V108.145C14.5161 116.685 21.0257 123.629 29.0323 123.629H68.9516C70.9567 123.629 72.5806 121.897 72.5806 119.758V115.887C72.5806 111.612 69.3304 108.145 65.3226 108.145H58.0645L87.0968 84.9194V119.758C87.0968 121.897 88.7208 123.629 90.7258 123.629H97.9839C99.9889 123.629 101.613 121.897 101.613 119.758V69.8855C99.279 70.5315 96.8747 70.9839 94.3548 70.9839C80.3354 70.9839 68.6069 60.3266 65.91 46.2097V46.2097ZM101.613 22.9839H87.0968L72.5806 7.5V40.0161C72.5806 52.8435 82.3291 63.2419 94.3548 63.2419C106.381 63.2419 116.129 52.8435 116.129 40.0161V7.5L101.613 22.9839ZM85.2823 42.3387C83.2772 42.3387 81.6532 40.6065 81.6532 38.4677C81.6532 36.329 83.2772 34.5968 85.2823 34.5968C87.2873 34.5968 88.9113 36.329 88.9113 38.4677C88.9113 40.6065 87.2873 42.3387 85.2823 42.3387ZM103.427 42.3387C101.422 42.3387 99.7984 40.6065 99.7984 38.4677C99.7984 36.329 101.422 34.5968 103.427 34.5968C105.432 34.5968 107.056 36.329 107.056 38.4677C107.056 40.6065 105.432 42.3387 103.427 42.3387Z" fill="black"/>
</g>
<defs>
<clipPath id="clip0">
<rect width="120" height="120" fill="white"/>
</clipPath>
</defs>
</svg>
