<svg width="120" height="120" viewBox="0 0 120 120" fill="none" xmlns="http://www.w3.org/2000/svg">
<g clip-path="url(#clip0)">
<path d="M62.0959 52.5L93.3334 65.0508V116.25C93.3334 117.245 92.9822 118.198 92.357 118.902C91.7319 119.605 90.8841 120 90 120H76.6667C75.7826 120 74.9348 119.605 74.3097 118.902C73.6845 118.198 73.3334 117.245 73.3334 116.25V90H40V116.25C40 117.245 39.6488 118.198 39.0237 118.902C38.3986 119.605 37.5507 120 36.6667 120H23.3334C22.4493 120 21.6015 119.605 20.9763 118.902C20.3512 118.198 20 117.245 20 116.25V66.1148C12.2584 63.0094 6.66669 54.7641 6.66669 45C6.66669 43.0109 7.36907 41.1032 8.61931 39.6967C9.86955 38.2902 11.5652 37.5 13.3334 37.5C15.1015 37.5 16.7972 38.2902 18.0474 39.6967C19.2976 41.1032 20 43.0109 20 45C20.0033 46.988 20.7068 48.8935 21.9563 50.2992C23.2058 51.7049 24.8996 52.4963 26.6667 52.5H62.0959ZM113.333 26.25V33.75C113.333 37.7282 111.929 41.5435 109.428 44.3566C106.928 47.1696 103.536 48.75 100 48.75H93.3334V57.0891L66.6667 46.3758V11.25C66.6667 7.91014 70.2542 6.2367 72.3563 8.5992L78.0396 15H89.2125C91.4854 15 94.1604 16.8562 95.175 19.1461L96.6667 22.5H110C110.884 22.5 111.732 22.8951 112.357 23.5983C112.982 24.3016 113.333 25.2554 113.333 26.25ZM90 26.25C90 25.5083 89.8045 24.7833 89.4383 24.1666C89.072 23.5499 88.5514 23.0693 87.9423 22.7854C87.3332 22.5016 86.663 22.4273 86.0164 22.572C85.3698 22.7167 84.7758 23.0739 84.3097 23.5983C83.8435 24.1228 83.526 24.791 83.3974 25.5184C83.2688 26.2458 83.3348 26.9998 83.5871 27.685C83.8394 28.3703 84.2666 28.9559 84.8148 29.368C85.3629 29.7801 86.0074 30 86.6667 30C87.5507 30 88.3986 29.6049 89.0237 28.9016C89.6488 28.1984 90 27.2445 90 26.25Z" fill="black"/>
</g>
<defs>
<clipPath id="clip0">
<rect width="120" height="120" fill="white"/>
</clipPath>
</defs>
</svg>
