<svg width="120" height="120" viewBox="0 0 120 120" fill="none" xmlns="http://www.w3.org/2000/svg">
<g clip-path="url(#clip0)">
<path d="M60 52.5C41.3882 52.5 15 81.2719 15 99.4336C15 107.613 21.2836 112.5 31.814 112.5C43.2609 112.5 50.8195 106.622 60 106.622C69.2601 106.622 76.8398 112.5 88.1859 112.5C98.7164 112.5 105 107.613 105 99.4336C105 81.2719 78.6117 52.5 60 52.5ZM25.4812 49.5445C23.0437 41.4234 15.5343 36.1641 8.70934 37.7953C1.88434 39.4266 -1.67113 47.332 0.766374 55.4531C3.20387 63.5742 10.7132 68.8336 17.5382 67.2024C24.3632 65.5711 27.9187 57.6656 25.4812 49.5445V49.5445ZM45.3375 44.6742C52.589 42.7664 56.2172 32.9695 53.4422 22.793C50.6672 12.6164 42.539 5.91563 35.2875 7.82344C28.0359 9.73125 24.4078 19.5281 27.1828 29.7047C29.9578 39.8813 38.0882 46.5844 45.3375 44.6742ZM111.288 37.7977C104.463 36.1664 96.9562 41.4258 94.5164 49.5469C92.0789 57.668 95.6343 65.5734 102.459 67.2047C109.284 68.8359 116.791 63.5766 119.231 55.4555C121.669 47.3344 118.113 39.4289 111.288 37.7977V37.7977ZM74.6625 44.6742C81.914 46.582 90.0421 39.8813 92.8171 29.7047C95.5921 19.5281 91.964 9.7336 84.7125 7.82344C77.4609 5.91329 69.3328 12.6164 66.5578 22.793C63.7828 32.9695 67.4109 42.7664 74.6625 44.6742V44.6742Z" fill="black"/>
</g>
<defs>
<clipPath id="clip0">
<rect width="120" height="120" fill="white"/>
</clipPath>
</defs>
</svg>
