<svg width="24" height="24" viewBox="0 0 24 24" fill="none" xmlns="http://www.w3.org/2000/svg">
<path d="M13.5 2C15.8012 2 17.6667 3.86548 17.6667 6.16667V16.1667C17.6667 19.3883 15.055 22 11.8333 22C8.61167 22 6 19.3883 6 16.1667V9.5H7.66667V16.1667C7.66667 18.4679 9.53215 20.3333 11.8333 20.3333C14.1345 20.3333 16 18.4679 16 16.1667V6.16667C16 4.78595 14.8807 3.66667 13.5 3.66667C12.1193 3.66667 11 4.78595 11 6.16667V16.1667C11 16.6269 11.3731 17 11.8333 17C12.2936 17 12.6667 16.6269 12.6667 16.1667V7H14.3333V16.1667C14.3333 17.5474 13.214 18.6667 11.8333 18.6667C10.4526 18.6667 9.33333 17.5474 9.33333 16.1667V6.16667C9.33333 3.86548 11.1988 2 13.5 2Z" fill="#9EA2B1"/>
</svg>
