<svg width="38" height="38" viewBox="0 0 38 38" fill="none" xmlns="http://www.w3.org/2000/svg">
<path d="M19 38C8.50659 38 1.0144e-07 29.4934 2.26573e-07 19C3.51705e-07 8.50659 8.50659 1.0144e-07 19 2.26573e-07C29.4934 3.51705e-07 38 8.50659 38 19C38 29.4934 29.4934 38 19 38Z" fill="#4661EE" fill-opacity="0.1"/>
<path fill-rule="evenodd" clip-rule="evenodd" d="M21.7933 25.6667L16.206 25.6667C14.1467 25.6667 13 24.48 13 22.4467L13 15.56C13 13.4933 14.1467 12.3333 16.206 12.3333L21.7933 12.3333C23.82 12.3333 25 13.4933 25 15.56L25 22.4467C25 24.48 23.82 25.6667 21.7933 25.6667ZM21.6133 22.56L21.6133 22.5667L19.6206 22.5667C19.3333 22.5667 19.0999 22.3333 19.0999 22.0473C19.0999 21.7533 19.3333 21.52 19.6206 21.52L21.6133 21.52C21.9006 21.52 22.1333 21.7533 22.1333 22.04C22.1333 22.3267 21.9006 22.56 21.6133 22.56ZM21.6133 18.5067L16.3866 18.5067C16.0999 18.5067 15.8666 18.74 15.8666 19.0267C15.8666 19.3133 16.0999 19.5473 16.3866 19.5473L21.6133 19.5473C21.9006 19.5473 22.1333 19.3133 22.1333 19.0267C22.1333 18.74 21.9006 18.5067 21.6133 18.5067ZM21.6133 15.46L16.3867 15.46C16.1207 15.4866 15.92 15.714 15.92 15.98C15.92 16.2533 16.1207 16.48 16.3867 16.5066L21.6133 16.5066C21.8133 16.5266 22.0067 16.4333 22.1133 16.26C22.22 16.0933 22.22 15.8733 22.1133 15.7C22.0067 15.5333 21.8133 15.4333 21.6133 15.46Z" fill="#4661EE"/>
</svg>
