<svg width="327" height="161" viewBox="0 0 327 161" fill="none" xmlns="http://www.w3.org/2000/svg">
<path d="M154.601 50.2969C158.471 43.4869 177.411 23.0469 184.471 23.0469C186.211 23.0469 173.381 52.1869 165.931 64.7069L154.601 50.2969Z" fill="#F0F0F0"/>
<path d="M153.92 48.6669C157.47 42.4169 178 23.0469 184.47 23.0469C186.07 23.0469 166.14 54.4069 160.9 59.1769L153.92 48.6669Z" fill="#E0DFDF"/>
<path d="M20.8903 82.727C15.5103 78.457 11.5904 63.777 25.3504 54.667C25.3504 54.667 23.5604 70.737 38.1804 78.257L20.8903 82.727Z" fill="#E0DFDF"/>
<path d="M33.2707 159.398H40.1207C40.1207 159.398 40.4207 152.868 53.4207 140.398C57.2507 136.738 43.3007 115.158 33.4207 125.538C27.5807 131.788 33.2707 159.398 33.2707 159.398Z" fill="#E0DFDF"/>
<path d="M33.5205 159.397H44.7205C44.7205 159.397 44.1305 154.937 40.4805 155.307C36.8305 155.677 33.5205 159.397 33.5205 159.397Z" fill="#E0DFDF"/>
<path d="M228.801 70.7577L242.611 72.3977L231.151 43.4877L203.851 42.1777L223.061 48.0877L228.801 70.7577Z" fill="#A09C9C"/>
<path d="M107.461 61.8679C64.0805 93.4679 39.6506 60.9879 22.6106 76.1779C-16.9394 111.408 6.43053 146.548 11.1505 159.398H18.4105C18.0905 149.758 32.2805 135.298 32.2805 135.298C84.6205 161.008 127.511 137.868 127.511 137.868C127.511 137.868 119.721 52.9379 107.461 61.8679Z" fill="#F0F0F0"/>
<path d="M107.46 61.8672C98.7303 68.2272 90.7603 71.9872 83.4603 74.0672C80.9203 79.3172 78.4603 87.3972 80.4603 112.067C81.8603 128.857 69.5503 136.887 49.0303 132.747C42.7022 131.504 36.7163 128.912 31.4803 125.147C22.3903 134.347 11.4803 138.257 3.42029 134.097C2.66825 133.708 1.95211 133.253 1.28027 132.737C3.77027 144.487 9.11029 153.917 11.1103 159.357H18.3703C18.0503 149.717 32.8803 136.547 32.8803 136.547C85.2303 162.257 127.47 137.827 127.47 137.827C127.47 137.827 119.72 52.9372 107.46 61.8672Z" fill="#E0DFDF"/>
<path d="M66.2206 140.107C66.2206 140.107 65.5906 130.327 69.4306 121.907L72.4306 143.907L66.2206 140.107Z" fill="#E0DFDF"/>
<path d="M87.2607 159.398H96.8207C96.8207 159.398 91.3007 141.828 91.1207 135.558C90.9407 129.288 84.7807 98.9279 79.6307 98.7479C74.4807 98.5679 67.2007 128.928 68.3107 139.318C68.3107 139.318 83.2107 152.228 87.2607 159.398Z" fill="#F0F0F0"/>
<path d="M91.1206 135.557C90.9306 129.277 85.3306 95.4671 80.1806 95.2871C77.8006 99.7571 88.0106 131.967 82.1806 152.837C84.0608 154.852 85.7358 157.05 87.1806 159.397H96.7406C96.7406 159.397 91.3006 141.827 91.1206 135.557Z" fill="#E0DFDF"/>
<path d="M115.631 159.398H124.831C124.831 159.398 140.651 131.788 138.631 126.948C136.611 122.108 115.821 122.288 115.081 126.058C114.341 129.828 115.631 159.398 115.631 159.398Z" fill="#E0DFDF"/>
<path d="M112.89 154.377C90.0804 146.497 70.5704 110.377 96.8904 56.8765C96.8904 56.8765 131.25 40.9565 140.39 41.1065C150.83 41.2865 166.66 62.6365 167.02 67.6565C167.38 72.6765 164.54 107.797 162.54 114.707C158.47 128.687 112.89 154.377 112.89 154.377Z" fill="#C6C6C6"/>
<path d="M115.33 147.868C93.6902 140.578 75.1803 107.228 100.13 57.7683C100.13 57.7683 132.72 43.0583 141.39 43.1983C151.3 43.3683 166.14 63.4183 166.49 68.0483C166.84 72.6783 164.3 104.828 162.41 111.198C158.57 124.108 115.33 147.868 115.33 147.868Z" fill="#F0F0F0"/>
<path d="M126.631 85.867C117.631 83.667 86.4406 112.687 90.2006 134.307C95.8206 145.067 104.281 151.867 112.631 154.757C112.631 154.757 152.291 134.377 160.371 118.757C153.931 114.597 147.271 104.587 138.301 99.377C126.331 92.447 134.921 87.877 126.631 85.867Z" fill="#FBFBFB"/>
<path d="M115.341 150.487C106.531 147.487 97.0707 133.817 91.1307 122.487C90.6207 125.347 89.7306 131.637 90.2006 134.337C95.8206 145.097 104.281 151.897 112.631 154.787C112.631 154.787 148.401 136.407 158.911 121.207C144.251 135.637 115.341 150.487 115.341 150.487Z" fill="#F0F0F0"/>
<path d="M178.981 108.778C177.431 102.778 164.231 97.1177 165.281 89.6777C165.281 89.6777 144.281 90.9177 157.761 116.018L178.981 108.778Z" fill="#F0F0F0"/>
<path d="M124.3 55.4867C120.72 53.0967 129.45 27.3467 133.19 0.0267455C136.26 -0.973254 151.52 26.2667 143.92 48.5067L124.3 55.4867Z" fill="#F0F0F0"/>
<path d="M126.34 46.9668C125.9 42.7068 130.5 28.7668 134.02 8.61678C136.35 8.08678 147.81 30.1868 141.52 46.2568L126.34 46.9668Z" fill="#C6C6C6"/>
<path d="M128.08 112.727C133.43 121.247 156.08 124.517 165.8 120.727C165.8 120.727 173.8 107.277 168.05 108.507C156.05 111.077 135.82 98.5073 129.36 92.9473C123.83 88.2173 124.6 107.187 128.08 112.727Z" fill="#FBFBFB"/>
<path d="M165.321 120.817C161.601 120.817 155.78 111.937 156.43 107.267C157.08 102.597 176.85 105.647 178.73 108.117C180.61 110.587 168.581 120.817 165.321 120.817Z" fill="#A09C9C"/>
<path d="M170.051 111.107C163.461 111.107 157.951 109.487 156.431 107.287C155.801 111.967 161.611 120.817 165.321 120.817C168.011 120.817 176.611 113.907 178.541 110.077C175.768 110.79 172.913 111.137 170.051 111.107V111.107Z" fill="#868080"/>
<path d="M164.98 118.167C162.87 117.367 158.121 113.227 159.191 111.837C160.261 110.447 164.561 112.637 166.051 114.017C167.541 115.397 166.49 118.727 164.98 118.167Z" fill="#666666"/>
<path d="M150.84 116.367C136.46 112.827 121.02 101.367 124.74 86.627L126.97 88.187C123.57 101.607 136.1 112.137 150.97 115.787L150.84 116.367Z" fill="black"/>
<path d="M162.241 90.2872C163.121 89.7872 163.131 88.7372 162.241 87.9372C161.824 87.5482 161.303 87.2905 160.741 87.1962C160.179 87.1019 159.601 87.1753 159.081 87.4072C158.201 87.9072 158.191 88.9573 159.081 89.7473C159.497 90.1368 160.018 90.3956 160.58 90.4916C161.141 90.5876 161.719 90.5165 162.241 90.2872V90.2872Z" fill="black"/>
<path d="M145.841 86.6979C146.691 86.1479 146.641 85.0979 145.731 84.3479C145.293 83.986 144.759 83.7593 144.194 83.6954C143.63 83.6314 143.059 83.7331 142.551 83.9879C141.701 84.5379 141.751 85.5879 142.651 86.3379C143.089 86.7041 143.624 86.9335 144.192 86.9975C144.759 87.0616 145.332 86.9573 145.841 86.6979V86.6979Z" fill="black"/>
<path d="M167.3 158.788H314.57C314.57 158.788 333.43 114.788 322.31 75.6876C322.31 75.6876 228.31 76.6876 189.86 55.0176C189.86 54.9976 155.16 106.888 167.3 158.788Z" fill="#F0F0F0"/>
<path d="M322.31 75.667H319.46C294.53 160.667 185.31 148.277 164.77 132.667C164.483 141.453 165.333 150.239 167.3 158.807H314.57C314.57 158.807 333.43 114.747 322.31 75.667Z" fill="#E0DFDF"/>
<path d="M202.851 66.1577L203.851 42.1777L216.321 43.1677L210.351 69.5277L202.851 66.1577Z" fill="#FBFBFB"/>
<path d="M304.5 83.6274C293.98 87.2574 197.83 80.5474 185.98 76.3574C185.98 76.3574 187.98 70.1374 188.72 67.3574C222.1 80.4174 307.98 81.5674 304.5 83.6274Z" fill="#E0DFDF"/>
<path d="M301.381 96.367C290.901 100.057 194.191 93.507 178.641 92.467C178.641 92.467 179.841 86.417 180.271 83.707C214.031 91.047 304.741 94.317 301.381 96.367Z" fill="#E0DFDF"/>
<path d="M284.47 112.727C275.13 117.647 187.84 112.897 173.65 113.167C173.65 113.167 174.44 106.537 174.7 103.577C205.74 108.467 287.42 110.207 284.47 112.727Z" fill="#E0DFDF"/>
<path d="M261.131 132.877C254.411 137.877 183.131 133.537 171.691 133.877C171.691 133.877 171.211 127.237 170.911 124.287C196.821 129.027 263.081 130.337 261.131 132.877Z" fill="#E0DFDF"/>
<path d="M87.2607 159.397H100.651C100.651 159.397 99.8307 155.047 95.4507 154.827C88.5907 154.487 87.2607 159.397 87.2607 159.397Z" fill="#F0F0F0"/>
<path d="M119.9 159.397H133.29C133.29 159.397 132.59 154.937 128.23 155.307C123.87 155.677 119.9 159.397 119.9 159.397Z" fill="#E0DFDF"/>
<path d="M128.071 90.2171L128.541 90.3872C128.751 85.7772 124.281 85.0671 122.131 88.0071L122.701 88.2171C124.661 86.6971 127.531 87.3171 128.071 90.2171Z" fill="#68413C"/>
<path opacity="0.5" d="M138.341 79.4373C135.881 80.4373 135.341 75.2873 138.341 74.6473C141.341 74.0073 149.521 76.0673 150.001 78.4673C150.481 80.8673 149.491 81.1873 147.511 80.2173C145.531 79.2473 140.251 78.6573 138.341 79.4373Z" fill="#C8C6C6"/>
<path opacity="0.5" d="M163.42 86.7871C164.33 88.8671 166.65 84.6671 165.28 82.6071C163.91 80.5471 158.83 78.3771 157.64 80.2171C156.45 82.0571 156.84 82.8271 158.26 82.9571C160.403 83.535 162.247 84.9036 163.42 86.7871Z" fill="#C8C6C6"/>
<path d="M200.7 60.1078C198.036 58.9644 195.442 57.6655 192.93 56.2178C192.93 56.2178 159.8 107.488 171.39 158.758H179.91C170.78 113.958 194.98 69.6878 200.7 60.1078Z" fill="#E0DFDF"/>
<path d="M198.61 57.1074C195.726 55.9379 192.911 54.6024 190.18 53.1074C190.18 53.1074 154.18 106.927 166.77 160.747H176.03C166.11 113.707 192.42 67.2374 198.61 57.1074Z" fill="#F0F0F0"/>
<path d="M325.731 118.278C328.551 95.5378 324.111 75.9378 322.311 75.6678C320.511 75.3978 314.601 94.7978 311.781 117.528C308.961 140.258 312.591 158.408 314.401 158.678C316.211 158.948 322.911 141.018 325.731 118.278Z" fill="#A09C9C"/>
<path opacity="0.45" d="M309.76 156.808C308.27 153.808 306.57 146.588 306.57 146.588L216.74 154.468L309.76 156.808Z" fill="#F0F0F0"/>
<path d="M176.761 111.907C173.449 111.552 170.206 110.724 167.131 109.447C163.751 125.257 162.63 142.977 166.77 160.707H176.03C172.47 143.817 173.581 126.997 176.761 111.907Z" fill="#FBFBFB"/>
<path d="M11.0508 159.397H22.2108C22.2108 159.397 21.6308 154.937 17.9908 155.307C14.3508 155.677 11.0508 159.397 11.0508 159.397Z" fill="#F0F0F0"/>
<path d="M21.1807 131.107C20.9007 137.917 19.7607 149.837 14.5107 150.977C9.26068 152.117 1.17067 136.107 1.88067 131.107C2.59067 126.107 21.1807 131.107 21.1807 131.107Z" fill="#F0F0F0"/>
<path d="M30.9805 136.677C35.9805 133.867 39.4405 120.797 37.4505 109.567C37.4505 109.567 37.2005 124.957 22.5605 132.757L30.9805 136.677Z" fill="#E0DFDF"/>
<path d="M128.52 46.8773C128.21 43.2073 131.961 30.3873 134.861 12.9773C136.681 12.4973 145.36 32.2174 140.34 46.1374L128.52 46.8773Z" fill="#A09C9C"/>
<g style="mix-blend-mode:overlay" opacity="0.33">
<path d="M240.3 74.3574C202.83 105.007 201.7 139.357 201.7 139.357L222.98 139.107C262.98 98.5174 305.58 78.6474 305.58 78.6474L240.3 74.3574Z" fill="#FBFBFB"/>
</g>
<g style="mix-blend-mode:overlay" opacity="0.96">
<path d="M191.62 55.4775L196.3 57.3976L182.25 72.5075L191.62 55.4775Z" fill="#DBB79E"/>
</g>
</svg>
