<svg width="362" height="67" viewBox="0 0 362 67" fill="none" xmlns="http://www.w3.org/2000/svg">
<path fill-rule="evenodd" clip-rule="evenodd" d="M49.1489 11.297L63.2929 25.441C67.6089 29.757 67.6089 36.803 63.2929 41.119L41.0889 63.323C38.4369 65.975 34.7449 67.002 31.2999 66.391C36.5779 64.493 41.2449 60.112 44.6769 54.925C48.8889 48.581 51.2549 41.028 50.6829 35.425C50.2149 30.953 48.4989 29.783 44.6509 27.144L44.4039 26.975L33.1199 18.551C31.8329 17.667 30.2599 16.718 28.6609 16.25C27.6859 15.964 26.6849 15.847 25.7229 16.016C30.1169 12.805 40.4259 10.01 49.1489 11.297Z" fill="url(#paint0_linear)"/>
<path fill-rule="evenodd" clip-rule="evenodd" d="M2.75183 25.909L25.4108 3.237C29.7268 -1.079 36.7728 -1.079 41.0888 3.237L49.1488 11.297C47.4068 10.985 45.6258 10.79 43.8318 10.725C36.2268 10.452 28.5438 12.363 24.0718 15.782C23.6558 16.107 23.2788 16.406 22.9538 16.718C22.9018 16.744 22.8628 16.783 22.8108 16.809L22.8238 16.835C20.4578 19.097 20.3538 21.203 20.1458 25.259C20.1458 25.259 19.8728 43.082 20.2888 44.694C20.5748 45.799 21.0428 46.8 21.7968 47.58C21.5758 47.502 21.3548 47.424 21.1208 47.32C14.5558 44.291 4.93583 34.58 2.75183 25.909Z" fill="url(#paint1_linear)"/>
<path d="M49.1359 35.9845C49.0969 35.6465 48.9539 34.7625 48.9279 34.6325C48.7459 35.7115 48.1739 36.6605 47.4069 37.5055C46.1979 38.8185 45.5089 39.3385 44.0139 40.1055L30.5199 47.1255C26.3729 49.2835 24.5269 50.2455 20.3669 48.5425C15.1539 46.4105 5.14387 36.1925 2.79087 25.8965C-1.07013 30.2385 -0.927125 36.9465 3.23287 41.1065L25.2679 63.1415L25.4369 63.3105C26.0999 63.9735 26.8149 64.5195 27.5819 64.9745C28.4269 65.4815 30.2209 66.1835 31.3129 66.3655C36.8249 64.7015 40.6599 59.9695 44.2219 54.6005C48.3819 48.3605 49.7079 41.4575 49.1359 35.9845Z" fill="url(#paint2_linear)"/>
<path opacity="0.35" fill-rule="evenodd" clip-rule="evenodd" d="M33.3929 18.1482L41.0759 23.8812C41.2319 23.8812 41.3879 23.8682 41.5569 23.8682C50.9429 23.8682 59.5879 27.6642 66.0099 33.7612C66.1399 30.8882 65.1259 27.9892 62.9419 25.8052L48.9149 11.7782C47.5499 11.5832 46.0939 11.4922 44.5989 11.4922C37.8389 11.4922 31.2999 13.3772 27.5039 15.4962C27.9199 15.5482 28.3489 15.6392 28.7909 15.7692C30.5849 16.3022 32.2749 17.3682 33.3929 18.1482Z" fill="url(#paint3_linear)"/>
<path opacity="0.35" fill-rule="evenodd" clip-rule="evenodd" d="M19.5869 31.6158C19.6129 28.5088 19.6519 25.9088 19.6649 25.2328C19.8599 21.3198 19.9769 19.0838 22.1739 16.7958L22.1089 16.7048L22.5379 16.4058C22.5769 16.3798 22.6159 16.3538 22.6549 16.3278C22.9929 16.0158 23.3569 15.7168 23.7729 15.3918C27.9589 12.1938 35.0829 10.2048 42.3759 10.2048C42.8699 10.2048 43.3639 10.2178 43.8579 10.2308C45.1579 10.2828 46.4449 10.3868 47.6929 10.5558L40.7249 3.58784C38.7359 1.59884 36.0839 0.506836 33.2499 0.506836C30.4159 0.506836 27.7639 1.59884 25.7749 3.58784L3.32385 26.0648C4.57185 30.6928 8.00385 35.7368 11.9689 39.8058C14.0749 36.6988 16.6489 33.9298 19.5869 31.6158Z" fill="url(#paint4_linear)"/>
<path opacity="0.35" d="M10.9029 41.496C7.32787 37.44 4.03887 32.266 2.59587 27.001C-0.459128 31.161 -0.0821276 37.024 3.63587 40.742L8.69287 45.799C9.32987 44.317 10.0709 42.874 10.9029 41.496Z" fill="url(#paint5_linear)"/>
<path d="M94.4909 23.9635C94.4909 23.6402 94.6525 23.4785 94.9759 23.4785H97.4494C97.7727 23.4785 97.9344 23.6402 97.9344 23.9635V47.195C97.9344 50.8164 96.8835 53.4677 94.7819 55.149C92.7125 56.8304 89.851 57.671 86.1974 57.671C85.4537 57.671 84.8879 57.6549 84.4999 57.6225C84.1765 57.5902 84.0149 57.4124 84.0149 57.089L84.1119 54.858C84.1119 54.6964 84.1604 54.567 84.2574 54.47C84.3544 54.4054 84.4675 54.3892 84.5969 54.4215L85.9064 54.47C88.9134 54.47 91.0959 53.8719 92.4539 52.6755C93.8119 51.5115 94.4909 49.6524 94.4909 47.098V45.3035C94.4909 45.2389 94.4585 45.2065 94.3939 45.2065C94.3615 45.1742 94.313 45.1904 94.2484 45.255C92.761 47.195 90.6432 48.165 87.8949 48.165C85.7932 48.165 83.9179 47.5992 82.2689 46.4675C80.6522 45.3359 79.569 43.7354 79.0194 41.666C78.6314 40.3404 78.4374 38.368 78.4374 35.749C78.4374 34.3264 78.4697 33.13 78.5344 32.16C78.6314 31.19 78.8092 30.317 79.0679 29.541C79.6499 27.601 80.7007 26.049 82.2204 24.885C83.74 23.6887 85.5669 23.0905 87.7009 23.0905C90.5785 23.0905 92.761 24.0444 94.2484 25.952C94.313 26.0167 94.3615 26.0329 94.3939 26.0005C94.4585 25.9682 94.4909 25.9197 94.4909 25.855V23.9635ZM94.2484 40.599C94.3454 40.114 94.41 39.5159 94.4424 38.8045C94.4747 38.0932 94.4909 37.0585 94.4909 35.7005C94.4909 34.0515 94.4747 32.9522 94.4424 32.4025C94.41 31.8205 94.3292 31.287 94.1999 30.802C93.9412 29.444 93.2945 28.3285 92.2599 27.4555C91.2575 26.5502 89.9804 26.0975 88.4284 26.0975C86.9087 26.0975 85.6154 26.534 84.5484 27.407C83.5137 28.28 82.7862 29.4117 82.3659 30.802C82.0425 31.8367 81.8809 33.4534 81.8809 35.652C81.8809 38.0124 82.0425 39.6452 82.3659 40.5505C82.6892 41.9085 83.3844 43.0402 84.4514 43.9455C85.5507 44.8185 86.8764 45.255 88.4284 45.255C90.0127 45.255 91.306 44.8185 92.3084 43.9455C93.343 43.0725 93.9897 41.957 94.2484 40.599ZM115.208 23.236C116.275 23.236 117.196 23.4462 117.972 23.8665C118.231 23.9959 118.328 24.206 118.263 24.497L117.73 26.8735C117.633 27.1969 117.423 27.2939 117.099 27.1645C116.55 26.9382 115.919 26.825 115.208 26.825L114.577 26.8735C112.896 26.9382 111.506 27.5687 110.406 28.765C109.307 29.929 108.757 31.4164 108.757 33.227V47.5345C108.757 47.8579 108.596 48.0195 108.272 48.0195H105.799C105.476 48.0195 105.314 47.8579 105.314 47.5345V23.9635C105.314 23.6402 105.476 23.4785 105.799 23.4785H108.272C108.596 23.4785 108.757 23.6402 108.757 23.9635V26.922C108.757 27.019 108.774 27.0837 108.806 27.116C108.871 27.116 108.919 27.0837 108.951 27.019C109.63 25.8227 110.487 24.9012 111.522 24.2545C112.589 23.5755 113.818 23.236 115.208 23.236ZM132.104 48.4075C129.776 48.4075 127.771 47.8094 126.09 46.613C124.409 45.4167 123.245 43.7677 122.598 41.666C122.145 40.1787 121.919 38.1902 121.919 35.7005C121.919 33.2109 122.145 31.2385 122.598 29.7835C123.212 27.7142 124.36 26.0814 126.042 24.885C127.723 23.6887 129.76 23.0905 132.153 23.0905C134.448 23.0905 136.421 23.6887 138.07 24.885C139.751 26.0814 140.899 27.698 141.513 29.735C141.966 31.1254 142.192 33.1139 142.192 35.7005C142.192 38.3195 141.966 40.308 141.513 41.666C140.899 43.7677 139.751 45.4167 138.07 46.613C136.421 47.8094 134.432 48.4075 132.104 48.4075ZM132.104 45.4005C133.656 45.4005 134.982 44.9802 136.081 44.1395C137.18 43.2665 137.924 42.1025 138.312 40.6475C138.603 39.4835 138.749 37.8507 138.749 35.749C138.749 33.615 138.619 31.9822 138.361 30.8505C137.973 29.3955 137.213 28.2477 136.081 27.407C134.982 26.534 133.64 26.0975 132.056 26.0975C130.471 26.0975 129.129 26.534 128.03 27.407C126.931 28.2477 126.187 29.3955 125.799 30.8505C125.54 31.9822 125.411 33.615 125.411 35.749C125.411 37.883 125.54 39.5159 125.799 40.6475C126.155 42.1025 126.882 43.2665 127.982 44.1395C129.113 44.9802 130.487 45.4005 132.104 45.4005ZM158.533 48.4075C156.205 48.4075 154.2 47.8094 152.519 46.613C150.838 45.4167 149.674 43.7677 149.027 41.666C148.574 40.1787 148.348 38.1902 148.348 35.7005C148.348 33.2109 148.574 31.2385 149.027 29.7835C149.641 27.7142 150.789 26.0814 152.47 24.885C154.152 23.6887 156.189 23.0905 158.581 23.0905C160.877 23.0905 162.849 23.6887 164.498 24.885C166.18 26.0814 167.328 27.698 167.942 29.735C168.395 31.1254 168.621 33.1139 168.621 35.7005C168.621 38.3195 168.395 40.308 167.942 41.666C167.328 43.7677 166.18 45.4167 164.498 46.613C162.849 47.8094 160.861 48.4075 158.533 48.4075ZM158.533 45.4005C160.085 45.4005 161.411 44.9802 162.51 44.1395C163.609 43.2665 164.353 42.1025 164.741 40.6475C165.032 39.4835 165.177 37.8507 165.177 35.749C165.177 33.615 165.048 31.9822 164.789 30.8505C164.401 29.3955 163.642 28.2477 162.51 27.407C161.411 26.534 160.069 26.0975 158.484 26.0975C156.9 26.0975 155.558 26.534 154.459 27.407C153.36 28.2477 152.616 29.3955 152.228 30.8505C151.969 31.9822 151.84 33.615 151.84 35.749C151.84 37.883 151.969 39.5159 152.228 40.6475C152.584 42.1025 153.311 43.2665 154.41 44.1395C155.542 44.9802 156.916 45.4005 158.533 45.4005ZM200.433 23.139C202.858 23.139 204.766 23.8665 206.156 25.3215C207.579 26.7765 208.29 28.765 208.29 31.287V47.5345C208.29 47.8579 208.128 48.0195 207.805 48.0195H205.38C205.057 48.0195 204.895 47.8579 204.895 47.5345V31.966C204.895 30.1877 204.378 28.7812 203.343 27.7465C202.341 26.6795 201.015 26.146 199.366 26.146C197.652 26.146 196.262 26.6634 195.195 27.698C194.16 28.7327 193.643 30.123 193.643 31.869V47.5345C193.643 47.8579 193.481 48.0195 193.158 48.0195H190.685C190.361 48.0195 190.2 47.8579 190.2 47.5345V31.966C190.2 30.1877 189.698 28.7812 188.696 27.7465C187.694 26.6795 186.352 26.146 184.671 26.146C182.957 26.146 181.583 26.6634 180.548 27.698C179.546 28.7327 179.045 30.123 179.045 31.869V47.5345C179.045 47.8579 178.883 48.0195 178.56 48.0195H176.086C175.763 48.0195 175.601 47.8579 175.601 47.5345V23.9635C175.601 23.6402 175.763 23.4785 176.086 23.4785H178.56C178.883 23.4785 179.045 23.6402 179.045 23.9635V25.9035C179.045 25.9682 179.061 26.0167 179.093 26.049C179.158 26.049 179.222 26.0167 179.287 25.952C179.998 25.0144 180.904 24.3192 182.003 23.8665C183.135 23.3815 184.38 23.139 185.738 23.139C187.419 23.139 188.858 23.4785 190.054 24.1575C191.25 24.8365 192.156 25.8227 192.77 27.116C192.835 27.2777 192.916 27.2777 193.013 27.116C193.724 25.7904 194.726 24.8042 196.02 24.1575C197.313 23.4785 198.784 23.139 200.433 23.139ZM218.046 19.0165C217.27 19.0165 216.623 18.7579 216.106 18.2405C215.588 17.7232 215.33 17.0765 215.33 16.3005C215.33 15.4922 215.588 14.8455 216.106 14.3605C216.623 13.8432 217.27 13.5845 218.046 13.5845C218.822 13.5845 219.468 13.8432 219.986 14.3605C220.503 14.8455 220.762 15.4922 220.762 16.3005C220.762 17.0765 220.503 17.7232 219.986 18.2405C219.468 18.7579 218.822 19.0165 218.046 19.0165ZM216.688 47.971C216.364 47.971 216.203 47.8094 216.203 47.486V23.915C216.203 23.5917 216.364 23.43 216.688 23.43H219.161C219.485 23.43 219.646 23.5917 219.646 23.915V47.486C219.646 47.8094 219.485 47.971 219.161 47.971H216.688ZM238.265 23.139C240.851 23.139 242.904 23.8989 244.424 25.4185C245.976 26.9382 246.752 28.9752 246.752 31.5295V47.5345C246.752 47.8579 246.59 48.0195 246.267 48.0195H243.794C243.47 48.0195 243.309 47.8579 243.309 47.5345V32.2085C243.309 30.4302 242.759 28.9752 241.66 27.8435C240.593 26.7119 239.202 26.146 237.489 26.146C235.71 26.146 234.271 26.6957 233.172 27.795C232.073 28.8944 231.523 30.3332 231.523 32.1115V47.5345C231.523 47.8579 231.361 48.0195 231.038 48.0195H228.565C228.241 48.0195 228.08 47.8579 228.08 47.5345V23.9635C228.08 23.6402 228.241 23.4785 228.565 23.4785H231.038C231.361 23.4785 231.523 23.6402 231.523 23.9635V26.049C231.523 26.1137 231.539 26.1622 231.572 26.1945C231.636 26.2269 231.685 26.2107 231.717 26.146C233.14 24.1414 235.322 23.139 238.265 23.139ZM269.356 23.9635C269.356 23.6402 269.518 23.4785 269.841 23.4785H272.315C272.638 23.4785 272.8 23.6402 272.8 23.9635V47.195C272.8 50.8164 271.749 53.4677 269.647 55.149C267.578 56.8304 264.716 57.671 261.063 57.671C260.319 57.671 259.753 57.6549 259.365 57.6225C259.042 57.5902 258.88 57.4124 258.88 57.089L258.977 54.858C258.977 54.6964 259.026 54.567 259.123 54.47C259.22 54.4054 259.333 54.3892 259.462 54.4215L260.772 54.47C263.779 54.47 265.961 53.8719 267.319 52.6755C268.677 51.5115 269.356 49.6524 269.356 47.098V45.3035C269.356 45.2389 269.324 45.2065 269.259 45.2065C269.227 45.1742 269.178 45.1904 269.114 45.255C267.626 47.195 265.508 48.165 262.76 48.165C260.658 48.165 258.783 47.5992 257.134 46.4675C255.517 45.3359 254.434 43.7354 253.885 41.666C253.497 40.3404 253.303 38.368 253.303 35.749C253.303 34.3264 253.335 33.13 253.4 32.16C253.497 31.19 253.674 30.317 253.933 29.541C254.515 27.601 255.566 26.049 257.086 24.885C258.605 23.6887 260.432 23.0905 262.566 23.0905C265.444 23.0905 267.626 24.0444 269.114 25.952C269.178 26.0167 269.227 26.0329 269.259 26.0005C269.324 25.9682 269.356 25.9197 269.356 25.855V23.9635ZM269.114 40.599C269.211 40.114 269.275 39.5159 269.308 38.8045C269.34 38.0932 269.356 37.0585 269.356 35.7005C269.356 34.0515 269.34 32.9522 269.308 32.4025C269.275 31.8205 269.194 31.287 269.065 30.802C268.806 29.444 268.16 28.3285 267.125 27.4555C266.123 26.5502 264.846 26.0975 263.294 26.0975C261.774 26.0975 260.481 26.534 259.414 27.407C258.379 28.28 257.651 29.4117 257.231 30.802C256.908 31.8367 256.746 33.4534 256.746 35.652C256.746 38.0124 256.908 39.6452 257.231 40.5505C257.554 41.9085 258.25 43.0402 259.317 43.9455C260.416 44.8185 261.742 45.255 263.294 45.255C264.878 45.255 266.171 44.8185 267.174 43.9455C268.208 43.0725 268.855 41.957 269.114 40.599ZM308.755 29.735C309.143 31.19 309.337 33.1947 309.337 35.749C309.337 38.4004 309.111 40.4535 308.658 41.9085C308.044 43.9132 306.977 45.4975 305.457 46.6615C303.938 47.8255 302.046 48.4075 299.783 48.4075C298.489 48.4075 297.309 48.1489 296.242 47.6315C295.175 47.1142 294.286 46.3705 293.575 45.4005C293.542 45.3359 293.494 45.3197 293.429 45.352C293.365 45.352 293.332 45.3844 293.332 45.449V47.5345C293.332 47.8579 293.171 48.0195 292.847 48.0195H290.374C290.05 48.0195 289.889 47.8579 289.889 47.5345V14.5545C289.889 14.2312 290.05 14.0695 290.374 14.0695H292.847C293.171 14.0695 293.332 14.2312 293.332 14.5545V26.0005C293.332 26.0652 293.348 26.1137 293.381 26.146C293.445 26.146 293.51 26.1137 293.575 26.049C294.286 25.1114 295.175 24.3839 296.242 23.8665C297.309 23.3492 298.489 23.0905 299.783 23.0905C302.078 23.0905 304.002 23.6887 305.554 24.885C307.106 26.049 308.173 27.6657 308.755 29.735ZM305.021 41.6175C305.344 40.9385 305.57 40.1787 305.7 39.338C305.829 38.465 305.894 37.2687 305.894 35.749C305.894 34.1647 305.797 32.936 305.603 32.063C305.441 31.1577 305.166 30.3494 304.778 29.638C304.358 28.571 303.679 27.7142 302.741 27.0675C301.804 26.4209 300.688 26.0975 299.395 26.0975C298.166 26.0975 297.099 26.437 296.194 27.116C295.321 27.7627 294.69 28.6357 294.302 29.735C293.979 30.414 293.736 31.19 293.575 32.063C293.445 32.936 293.381 34.1647 293.381 35.749C293.381 37.301 293.445 38.5135 293.575 39.3865C293.736 40.2272 293.963 40.987 294.254 41.666C294.674 42.7977 295.321 43.703 296.194 44.382C297.067 45.061 298.15 45.4005 299.443 45.4005C300.801 45.4005 301.965 45.061 302.935 44.382C303.938 43.703 304.633 42.7815 305.021 41.6175ZM325.394 48.4075C323.066 48.4075 321.061 47.8094 319.38 46.613C317.698 45.4167 316.534 43.7677 315.888 41.666C315.435 40.1787 315.209 38.1902 315.209 35.7005C315.209 33.2109 315.435 31.2385 315.888 29.7835C316.502 27.7142 317.65 26.0814 319.331 24.885C321.013 23.6887 323.05 23.0905 325.442 23.0905C327.738 23.0905 329.71 23.6887 331.359 24.885C333.041 26.0814 334.188 27.698 334.803 29.735C335.255 31.1254 335.482 33.1139 335.482 35.7005C335.482 38.3195 335.255 40.308 334.803 41.666C334.188 43.7677 333.041 45.4167 331.359 46.613C329.71 47.8094 327.722 48.4075 325.394 48.4075ZM325.394 45.4005C326.946 45.4005 328.271 44.9802 329.371 44.1395C330.47 43.2665 331.214 42.1025 331.602 40.6475C331.893 39.4835 332.038 37.8507 332.038 35.749C332.038 33.615 331.909 31.9822 331.65 30.8505C331.262 29.3955 330.502 28.2477 329.371 27.407C328.271 26.534 326.93 26.0975 325.345 26.0975C323.761 26.0975 322.419 26.534 321.32 27.407C320.22 28.2477 319.477 29.3955 319.089 30.8505C318.83 31.9822 318.701 33.615 318.701 35.749C318.701 37.883 318.83 39.5159 319.089 40.6475C319.444 42.1025 320.172 43.2665 321.271 44.1395C322.403 44.9802 323.777 45.4005 325.394 45.4005ZM339.808 48.0195C339.614 48.0195 339.469 47.9549 339.372 47.8255C339.307 47.6962 339.339 47.5669 339.469 47.4375L347.568 35.8945C347.633 35.7975 347.633 35.7005 347.568 35.6035L339.469 24.0605C339.404 23.9959 339.372 23.915 339.372 23.818C339.372 23.5917 339.517 23.4785 339.808 23.4785H342.427C342.686 23.4785 342.88 23.5755 343.009 23.7695L349.363 32.936C349.395 32.9684 349.443 32.9845 349.508 32.9845C349.573 32.9845 349.621 32.9684 349.654 32.936L355.959 23.7695C356.088 23.5755 356.282 23.4785 356.541 23.4785H359.402C359.596 23.4785 359.725 23.5432 359.79 23.6725C359.855 23.7695 359.822 23.8989 359.693 24.0605L351.594 35.6035C351.561 35.7005 351.561 35.7975 351.594 35.8945L359.693 47.4375C359.758 47.5022 359.79 47.5992 359.79 47.7285C359.79 47.7932 359.758 47.8579 359.693 47.9225C359.628 47.9872 359.531 48.0195 359.402 48.0195H356.735C356.476 48.0195 356.282 47.9225 356.153 47.7285L349.848 38.562C349.815 38.4974 349.767 38.465 349.702 38.465C349.637 38.465 349.589 38.4974 349.557 38.562L343.155 47.7285C343.025 47.9225 342.831 48.0195 342.573 48.0195H339.808Z" fill="white"/>
<defs>
<linearGradient id="paint0_linear" x1="45.7577" y1="13.4595" x2="47.1688" y2="57.1351" gradientUnits="userSpaceOnUse">
<stop stop-color="#6702A2"/>
<stop offset="0.0644014" stop-color="#7101B2"/>
<stop offset="0.2352" stop-color="#7704B9"/>
<stop offset="0.4115" stop-color="#8102CA"/>
<stop offset="0.5935" stop-color="#8702D4"/>
<stop offset="0.7847" stop-color="#9102E3"/>
<stop offset="1" stop-color="#A200FF"/>
</linearGradient>
<linearGradient id="paint1_linear" x1="13.8197" y1="37.8839" x2="32.8407" y2="7.66731" gradientUnits="userSpaceOnUse">
<stop stop-color="#6702A2"/>
<stop offset="0.0644014" stop-color="#7101B2"/>
<stop offset="0.2352" stop-color="#7704B9"/>
<stop offset="0.4115" stop-color="#8102CA"/>
<stop offset="0.5935" stop-color="#8702D4"/>
<stop offset="0.7847" stop-color="#9102E3"/>
<stop offset="1" stop-color="#A200FF"/>
</linearGradient>
<linearGradient id="paint2_linear" x1="45.2561" y1="52.3793" x2="9.11197" y2="39.5404" gradientUnits="userSpaceOnUse">
<stop stop-color="#6702A2"/>
<stop offset="0.0644014" stop-color="#7101B2"/>
<stop offset="0.2352" stop-color="#7704B9"/>
<stop offset="0.4115" stop-color="#8102CA"/>
<stop offset="0.5935" stop-color="#8702D4"/>
<stop offset="0.7847" stop-color="#9102E3"/>
<stop offset="1" stop-color="#A200FF"/>
</linearGradient>
<linearGradient id="paint3_linear" x1="46.421" y1="13.8976" x2="47.8061" y2="56.7729" gradientUnits="userSpaceOnUse">
<stop stop-color="#6702A2"/>
<stop offset="0.0644014" stop-color="#7101B2"/>
<stop offset="0.2352" stop-color="#7704B9"/>
<stop offset="0.4115" stop-color="#8102CA"/>
<stop offset="0.5935" stop-color="#8702D4"/>
<stop offset="0.7847" stop-color="#9102E3"/>
<stop offset="1" stop-color="#A200FF"/>
</linearGradient>
<linearGradient id="paint4_linear" x1="13.5818" y1="37.2525" x2="32.2098" y2="7.66034" gradientUnits="userSpaceOnUse">
<stop stop-color="#6702A2"/>
<stop offset="0.0644014" stop-color="#7101B2"/>
<stop offset="0.2352" stop-color="#7704B9"/>
<stop offset="0.4115" stop-color="#8102CA"/>
<stop offset="0.5935" stop-color="#8702D4"/>
<stop offset="0.7847" stop-color="#9102E3"/>
<stop offset="1" stop-color="#A200FF"/>
</linearGradient>
<linearGradient id="paint5_linear" x1="45.4345" y1="50.5345" x2="10.0117" y2="37.9517" gradientUnits="userSpaceOnUse">
<stop stop-color="#6702A2"/>
<stop offset="0.0644014" stop-color="#7101B2"/>
<stop offset="0.2352" stop-color="#7704B9"/>
<stop offset="0.4115" stop-color="#8102CA"/>
<stop offset="0.5935" stop-color="#8702D4"/>
<stop offset="0.7847" stop-color="#9102E3"/>
<stop offset="1" stop-color="#A200FF"/>
</linearGradient>
</defs>
</svg>
