<svg width="145" height="48" viewBox="0 0 145 48" fill="none" xmlns="http://www.w3.org/2000/svg">
<g clip-path="url(#clip0)">
<path d="M44.0918 10.6554C44.0918 7.6617 45.0115 5.17544 46.9019 3.19658C48.7923 1.21772 51.2958 0.253662 54.3614 0.253662C56.2518 0.253662 57.7334 0.507362 58.8064 0.964022C59.9304 1.47142 60.4924 2.13104 60.4924 3.04436C60.4924 3.39954 60.3902 3.75472 60.1859 4.16064C59.7771 4.871 59.2151 5.17544 58.3976 5.17544C58.0911 5.17544 57.7334 5.07396 57.2736 4.92174C56.5583 4.66804 55.7919 4.56656 54.8723 4.56656C53.084 4.56656 51.6535 5.07396 50.5805 6.1395C49.5076 7.20504 48.9456 8.72723 48.9456 10.6554C48.9456 12.5327 49.5076 14.0042 50.5805 15.1205C51.6535 16.2367 53.1351 16.7949 54.9234 16.7949C55.4854 16.7949 56.0985 16.6934 56.7627 16.4904C57.4269 16.2875 57.8867 16.0338 58.1422 15.7801V13.5983H55.9963C55.3832 13.5983 54.8723 13.3953 54.4635 12.9894C54.0548 12.5835 53.8504 12.0761 53.8504 11.4672C53.8504 10.8583 54.0548 10.3509 54.4635 9.94499C54.8723 9.53907 55.3832 9.33611 55.9963 9.33611H60.3392C60.9523 9.33611 61.4632 9.53907 61.8719 9.94499C62.2807 10.3509 62.485 10.8583 62.485 11.4672V16.7441C62.485 17.9619 61.9741 18.8752 60.9012 19.5348C59.0108 20.6511 57.0182 21.1585 54.8723 21.1585C51.4491 21.1585 48.7923 20.1945 46.8508 18.3171C45.0625 16.389 44.0918 13.852 44.0918 10.6554Z" fill="white"/>
<path d="M67.9017 7.61096C68.7703 7.61096 69.4345 8.01688 69.9454 8.77798C70.7629 7.9154 71.5293 7.45874 72.3468 7.45874C72.9599 7.45874 73.4708 7.6617 73.8284 8.01688C74.1861 8.37206 74.3394 8.87946 74.3394 9.4376C74.3394 9.6913 74.2883 9.89426 74.2372 10.148C73.9306 11.2642 73.2153 11.7716 72.0402 11.7716C71.7848 11.7716 71.5804 11.7716 71.5293 11.7209C71.4782 11.7209 71.3249 11.6702 71.1206 11.6702C70.9673 11.6702 70.814 11.6702 70.6607 11.7209C70.5074 11.7716 70.4053 11.8224 70.3542 11.9239C70.252 12.0253 70.2009 12.0761 70.2009 12.1776C70.1498 12.2283 70.0987 12.3298 70.0987 12.482L70.0476 12.7357V18.9767C70.0476 19.5348 69.8432 19.9915 69.4345 20.3974C69.0258 20.8033 68.5148 21.0063 67.9017 21.0063C67.2886 21.0063 66.7777 20.8033 66.369 20.3974C65.9602 19.9915 65.7559 19.5348 65.7559 18.9767V9.79278C65.7559 9.1839 65.9602 8.6765 66.369 8.27058C66.6244 7.81392 67.1864 7.61096 67.9017 7.61096Z" fill="white"/>
<path d="M88.0313 19.1288C86.7029 20.3973 84.9658 21.057 82.7688 21.057C80.5718 21.057 78.8347 20.3973 77.5063 19.1288C76.1779 17.8096 75.5137 16.1859 75.5137 14.2071C75.5137 12.2282 76.1779 10.6045 77.5063 9.2853C78.7836 8.0168 80.5718 7.35718 82.7688 7.35718C84.9658 7.35718 86.754 8.0168 88.0313 9.2853C89.3597 10.6045 90.0239 12.2282 90.0239 14.2071C90.0239 16.1859 89.3597 17.8604 88.0313 19.1288ZM84.6081 12.2282C84.2505 11.8223 83.7906 11.5686 83.2797 11.5179C82.7688 11.4164 82.2579 11.4671 81.7469 11.6701C81.2871 11.873 80.8784 12.1775 80.5718 12.6341C80.2653 13.0908 80.112 13.6489 80.1631 14.2578C80.1631 15.0697 80.4185 15.7293 80.8784 16.2367C81.3893 16.7441 82.0024 17.0485 82.7688 17.0485C83.5352 17.0485 84.1483 16.7948 84.6592 16.2874C85.119 15.78 85.3745 15.1204 85.3745 14.2578C85.3745 13.446 85.119 12.7864 84.6081 12.2282Z" fill="white"/>
<path d="M103.717 9.48822L105.25 13.6996C105.352 14.0548 105.506 14.613 105.659 15.3741C105.761 14.6637 105.863 14.0548 105.966 13.5982L107.038 9.18378C107.141 8.72712 107.396 8.37194 107.754 8.0675C108.111 7.76306 108.571 7.61084 109.031 7.61084C109.593 7.61084 110.104 7.8138 110.462 8.21972C110.87 8.62564 111.024 9.0823 111.024 9.64044C111.024 9.8434 110.973 10.0464 110.921 10.2493L108.162 19.1796C107.754 20.448 106.936 21.0569 105.659 21.0569C104.433 21.0569 103.564 20.4481 103.104 19.2303L101.367 14.8159C101.316 14.7144 101.214 14.2578 101.01 13.3445C100.907 14.0041 100.754 14.5115 100.601 14.8667L98.8637 19.2303C98.4039 20.4481 97.5864 21.0569 96.4113 21.0569C95.2361 21.0569 94.4187 20.448 94.0099 19.1796L91.1998 10.503C91.0977 10.3508 91.0977 10.0971 91.0977 9.79266C91.0977 9.23452 91.302 8.72712 91.7108 8.27046C92.1195 7.8138 92.6815 7.61084 93.2946 7.61084C93.7545 7.61084 94.2143 7.76306 94.5719 8.0675C94.9296 8.37194 95.185 8.72712 95.2872 9.18378L96.5134 13.6996C96.5645 13.8011 96.6667 14.3593 96.82 15.3233C96.9222 14.5622 97.0755 14.0041 97.1776 13.6996L98.6082 9.48822C99.017 8.27046 99.8344 7.66158 101.061 7.66158C102.491 7.61084 103.309 8.21972 103.717 9.48822Z" fill="white"/>
<path d="M113.016 15.7801V5.8858C113.016 5.32766 113.22 4.871 113.629 4.46508C114.037 4.05916 114.548 3.8562 115.162 3.8562C115.775 3.8562 116.286 4.05916 116.694 4.46508C117.103 4.871 117.307 5.32766 117.307 5.8858V7.76318H118.891C119.453 7.76318 119.913 7.96614 120.322 8.37206C120.731 8.77798 120.935 9.23464 120.935 9.79278C120.935 10.3509 120.731 10.8076 120.322 11.2135C119.913 11.6194 119.453 11.8224 118.891 11.8224H117.307V15.5771C117.307 16.5412 117.563 16.9979 118.125 16.9979C118.278 16.9979 118.483 16.9979 118.738 16.9471C118.789 16.9471 118.891 16.9471 118.942 16.9471C119.045 16.9471 119.096 16.9471 119.147 16.8964C119.198 16.8964 119.249 16.8964 119.249 16.8964C119.964 16.8964 120.475 17.2516 120.833 18.0127C120.935 18.2663 120.986 18.5201 120.986 18.7737C120.986 19.5856 120.577 20.1437 119.76 20.4989C118.891 20.9048 117.972 21.057 117.001 21.057C115.57 21.057 114.548 20.6004 113.935 19.7378C113.322 18.8752 113.016 17.556 113.016 15.7801Z" fill="white"/>
<path d="M132.481 18.9767V13.649C132.481 13.0401 132.277 12.482 131.919 12.1268C131.511 11.7209 131.051 11.5687 130.387 11.5687C129.569 11.5687 128.854 11.8224 128.292 12.3805V18.9767C128.292 19.5348 128.087 19.9915 127.679 20.3974C127.27 20.8033 126.759 21.0063 126.146 21.0063C125.533 21.0063 125.022 20.8033 124.613 20.3974C124.204 19.9915 124 19.5348 124 18.9767V2.28326C124 1.72512 124.204 1.26846 124.613 0.862542C125.022 0.456622 125.533 0.253662 126.146 0.253662C126.759 0.253662 127.27 0.456622 127.679 0.862542C128.087 1.26846 128.292 1.72512 128.292 2.28326V8.62576C129.109 7.86466 130.182 7.50948 131.511 7.50948C133.197 7.50948 134.474 7.96614 135.445 8.93019C136.364 9.84351 136.824 11.2642 136.824 13.1416V19.0274C136.824 19.5856 136.62 20.0422 136.211 20.4482C135.802 20.8541 135.291 21.057 134.678 21.057C134.065 21.057 133.554 20.8541 133.146 20.4482C132.686 20.0422 132.481 19.5348 132.481 18.9767Z" fill="white"/>
<path d="M142.291 15.2727C143.058 15.2727 143.671 15.5264 144.233 16.0845C144.744 16.6427 145.05 17.2516 145.05 17.9619C145.05 18.7738 144.795 19.4841 144.284 20.0423C143.773 20.6004 143.109 20.9048 142.342 20.9048C141.474 20.9048 140.758 20.6004 140.196 20.0423C139.634 19.4841 139.379 18.7738 139.379 17.9619C139.379 17.2516 139.634 16.6427 140.196 16.0845C140.707 15.5264 141.423 15.2727 142.291 15.2727Z" fill="white"/>
<path d="M46.4417 29.1246C47.3103 29.1246 47.9745 29.4798 48.4343 30.2409C49.354 29.3783 50.5291 28.9216 52.0619 28.9216C53.799 28.9216 55.2296 29.5305 56.3025 30.7483C57.3755 31.966 57.8864 33.5897 57.8864 35.5178C57.8864 37.5474 57.2222 39.2218 55.9449 40.5411C54.6676 41.8603 52.9815 42.5707 50.8868 42.5707C49.916 42.5707 49.0985 42.4185 48.4343 42.1648V45.9703C48.4343 46.5284 48.23 46.9851 47.8212 47.391C47.4125 47.7969 46.9016 47.9999 46.2885 47.9999C45.6753 47.9999 45.1644 47.7969 44.7557 47.391C44.3469 46.9851 44.1426 46.5284 44.1426 45.9703V31.2557C44.1426 30.6468 44.3469 30.1394 44.8068 29.7335C45.2155 29.3275 45.7775 29.1246 46.4417 29.1246ZM48.4343 34.0971V38.0548C48.9963 38.3593 49.6605 38.5622 50.478 38.5622C51.3466 38.5622 52.0619 38.3085 52.5217 37.7504C52.9815 37.243 53.237 36.5326 53.237 35.6193C53.237 34.8075 53.0326 34.1478 52.5728 33.6912C52.113 33.1838 51.4999 32.9808 50.6824 32.9808C49.8649 32.9808 49.1496 33.336 48.4343 34.0971Z" fill="white"/>
<path d="M66.7246 28.9216C68.4617 28.9216 69.9434 29.4798 71.1696 30.596C72.3958 31.7631 73.0089 33.2345 73.0089 35.0104V35.5686C73.0089 36.076 72.8556 36.4819 72.498 36.7356C72.1403 36.9893 71.7827 37.1415 71.3229 37.1415H64.1189C64.5276 38.3085 65.4983 38.9174 67.1844 38.9174C67.7464 38.9174 68.3595 38.8159 69.0237 38.613C69.2281 38.5622 69.4325 38.5115 69.5857 38.5115C70.3521 38.5115 70.863 38.8667 71.1185 39.5263C71.2207 39.6785 71.2207 39.8815 71.2207 40.1352C71.2207 40.8963 70.8119 41.5051 70.0456 41.8603C69.2792 42.2662 68.1552 42.4692 66.7246 42.4692C64.5787 42.4692 62.8926 41.8603 61.6153 40.5918C60.338 39.3741 59.6738 37.6996 59.6738 35.6193C59.6738 33.6912 60.338 32.0675 61.6664 30.7483C62.8926 29.5812 64.6298 28.9216 66.7246 28.9216ZM63.9656 34.3001H68.6661C68.6661 33.7927 68.4617 33.3867 68.1041 33.0316C67.6953 32.6764 67.1844 32.5242 66.5713 32.5242C65.294 32.5242 64.4254 33.133 63.9656 34.3001Z" fill="white"/>
<path d="M74.9004 37.2938V27.3995C74.9004 26.8413 75.1048 26.3847 75.5135 25.9788C75.9222 25.5728 76.4332 25.3699 77.0463 25.3699C77.6594 25.3699 78.1703 25.5728 78.579 25.9788C78.9878 26.3847 79.1921 26.8413 79.1921 27.3995V29.2768H80.776C81.338 29.2768 81.7978 29.4798 82.2066 29.8857C82.6153 30.2916 82.8197 30.7483 82.8197 31.3064C82.8197 31.8646 82.6153 32.3212 82.2066 32.7272C81.7978 33.1331 81.338 33.336 80.776 33.336H79.1921V37.0401C79.1921 38.0041 79.4476 38.4608 80.0096 38.4608C80.1629 38.4608 80.3673 38.4608 80.6227 38.41C80.6738 38.41 80.776 38.41 80.8271 38.41C80.9293 38.41 80.9804 38.41 81.0315 38.3593C81.0826 38.3593 81.1336 38.3593 81.1336 38.3593C81.8489 38.3593 82.3599 38.7145 82.7175 39.4756C82.8197 39.7293 82.8708 39.983 82.8708 40.2367C82.8708 41.0485 82.462 41.6067 81.6446 41.9618C80.776 42.3678 79.8563 42.52 78.8856 42.52C77.455 42.52 76.4332 42.0633 75.82 41.2007C75.258 40.3889 74.9004 39.0697 74.9004 37.2938Z" fill="white"/>
<path d="M29.6408 7.50249C31.7004 7.01951 32.9758 4.96987 32.4894 2.92447C32.0031 0.879082 29.9392 -0.387507 27.8796 0.0954675C25.82 0.578442 24.5446 2.62809 25.031 4.67348C25.5173 6.71887 27.5812 7.98546 29.6408 7.50249Z" fill="#6366F1"/>
<path d="M14.6643 48C10.2193 48 5.97861 46.9852 2.0445 45.057C0.256273 44.1437 -0.45902 42.0126 0.40955 40.2367C1.32921 38.4608 3.47509 37.7505 5.26332 38.6131C8.17558 40.0845 11.3433 40.7949 14.6643 40.7949C17.8831 40.7949 20.9998 40.0845 23.8609 38.7145C25.6492 37.852 27.8461 38.6131 28.7147 40.389C29.5833 42.1649 28.8169 44.3467 27.0287 45.2093C23.1456 47.0359 18.9561 48 14.6643 48Z" fill="#6366F1"/>
<path d="M14.5106 33.6914C6.6424 33.6914 0.255859 27.3489 0.255859 19.5856C0.255859 11.7717 6.6424 5.4292 14.5106 5.4292C22.3788 5.4292 28.7654 11.7717 28.7654 19.5856C28.7654 27.3489 22.3788 33.6914 14.5106 33.6914ZM14.5106 12.6343C10.6787 12.6343 7.51097 15.7294 7.51097 19.5856C7.51097 23.3911 10.6276 26.537 14.5106 26.537C18.3936 26.537 21.5103 23.4419 21.5103 19.5856C21.5103 15.7294 18.3425 12.6343 14.5106 12.6343Z" fill="white"/>
</g>
<defs>
<clipPath id="clip0">
<rect width="145" height="48" fill="white"/>
</clipPath>
</defs>
</svg>
