<?xml version="1.0" encoding="UTF-8" standalone="no" ?>
<!DOCTYPE svg PUBLIC "-//W3C//DTD SVG 1.1//EN" "http://www.w3.org/Graphics/SVG/1.1/DTD/svg11.dtd">
<svg xmlns="http://www.w3.org/2000/svg" xmlns:xlink="http://www.w3.org/1999/xlink" version="1.1" width="700" height="440" viewBox="0 0 700 440" xml:space="preserve">
<desc>Sdelano: LOGOZA.RU</desc>
<defs>

                <style type="text/css">
                    @import url(http://fonts.googleapis.com/css?family=Barlow:100,100i,200,200i,300,300i,400,400i,500,500i,600,600i,700,700i,800,800i,900,900i)
                </style>
            
                <style type="text/css">
                    @import url(http://fonts.googleapis.com/css?family=Alata:100,100i,200,200i,300,300i,400,400i,500,500i,600,600i,700,700i,800,800i,900,900i)
                </style>
            
</defs>
<rect x="0" y="0" width="100%" height="100%" fill="#ffffff"></rect>
<g transform="matrix(1 0 0 1 350 220)"  >
<g style=""   >
		<g transform="matrix(0.13 0 0 0.13 -147.9 0)"  >
<filter id="SVGID_4138" y="-20%" height="140%" x="-20%" width="140%" >
	<feGaussianBlur in="SourceAlpha" stdDeviation="0"></feGaussianBlur>
	<feOffset dx="0" dy="0" result="oBlur" ></feOffset>
	<feFlood flood-color="rgb(142,68,173)" flood-opacity="1"/>
	<feComposite in2="oBlur" operator="in" />
	<feMerge>
		<feMergeNode></feMergeNode>
		<feMergeNode in="SourceGraphic"></feMergeNode>
	</feMerge>
</filter>
<g style="filter: url(#SVGID_4138);"   >
		<g transform="matrix(1 0 0 1 98.75 42.23)" id="Layer_1"  >
<linearGradient id="SVGID_SVGID_1__4008" gradientUnits="userSpaceOnUse" gradientTransform="matrix(1 0 0 1 0 0)"  x1="351.9142" y1="103.5342" x2="362.7682" y2="439.5007">
<stop offset="0%" style="stop-color:#6702A2;stop-opacity: 1"/>
<stop offset="6.440139%" style="stop-color:#7101B2;stop-opacity: 1"/>
<stop offset="23.52%" style="stop-color:#7704B9;stop-opacity: 1"/>
<stop offset="41.15%" style="stop-color:#8102CA;stop-opacity: 1"/>
<stop offset="59.35%" style="stop-color:#8702D4;stop-opacity: 1"/>
<stop offset="78.47%" style="stop-color:#9102E3;stop-opacity: 1"/>
<stop offset="100%" style="stop-color:#A200FF;stop-opacity: 1"/>
</linearGradient>
<path style="stroke: none; stroke-width: 1; stroke-dasharray: none; stroke-linecap: butt; stroke-dashoffset: 0; stroke-linejoin: miter; stroke-miterlimit: 4; fill: url(#SVGID_SVGID_1__4008); fill-rule: evenodd; opacity: 1;"  transform=" translate(-354.75, -298.23)" d="M 378 86.9 l 108.8 108.8 c 33.2 33.2 33.2 87.4 0 120.6 L 316 487.1 c -20.4 20.4 -48.8 28.3 -75.3 23.6 c 40.6 -14.6 76.5 -48.3 102.9 -88.2 c 32.4 -48.8 50.6 -106.9 46.2 -150 c -3.6 -34.4 -16.8 -43.4 -46.4 -63.7 l -1.9 -1.3 l -86.8 -64.8 c -9.9 -6.8 -22 -14.1 -34.3 -17.7 c -7.5 -2.2 -15.2 -3.1 -22.6 -1.8 C 231.6 98.5 310.9 77 378 86.9 z" stroke-linecap="round" />
</g>
		<g transform="matrix(1 0 0 1 -56.45 -73)" id="Layer_1"  >
<linearGradient id="SVGID_SVGID_2__4009" gradientUnits="userSpaceOnUse" gradientTransform="matrix(1 0 0 1 0 0)"  x1="106.2372" y1="291.4149" x2="252.553" y2="58.9793">
<stop offset="0%" style="stop-color:#6702A2;stop-opacity: 1"/>
<stop offset="6.440139%" style="stop-color:#7101B2;stop-opacity: 1"/>
<stop offset="23.52%" style="stop-color:#7704B9;stop-opacity: 1"/>
<stop offset="41.15%" style="stop-color:#8102CA;stop-opacity: 1"/>
<stop offset="59.35%" style="stop-color:#8702D4;stop-opacity: 1"/>
<stop offset="78.47%" style="stop-color:#9102E3;stop-opacity: 1"/>
<stop offset="100%" style="stop-color:#A200FF;stop-opacity: 1"/>
</linearGradient>
<path style="stroke: none; stroke-width: 1; stroke-dasharray: none; stroke-linecap: butt; stroke-dashoffset: 0; stroke-linejoin: miter; stroke-miterlimit: 4; fill: url(#SVGID_SVGID_2__4009); fill-rule: evenodd; opacity: 1;"  transform=" translate(-199.55, -183)" d="M 21.1 199.3 L 195.4 24.9 c 33.2 -33.2 87.4 -33.2 120.6 0 l 62 62 c -13.4 -2.4 -27.1 -3.9 -40.9 -4.4 c -58.5 -2.1 -117.6 12.6 -152 38.9 c -3.2 2.5 -6.1 4.8 -8.6 7.2 c -0.4 0.2 -0.7 0.5 -1.1 0.7 l 0.1 0.2 c -18.2 17.4 -19 33.6 -20.6 64.8 c 0 0 -2.1 137.1 1.1 149.5 c 2.2 8.5 5.8 16.2 11.6 22.2 c -1.7 -0.6 -3.4 -1.2 -5.2 -2 C 111.9 340.7 37.9 266 21.1 199.3 z" stroke-linecap="round" />
</g>
		<g transform="matrix(1 0 0 1 -66.6 98.85)" id="Layer_1"  >
<linearGradient id="SVGID_SVGID_3__4010" gradientUnits="userSpaceOnUse" gradientTransform="matrix(1 0 0 1 0 0)"  x1="348.0556" y1="402.9141" x2="70.0238" y2="304.153">
<stop offset="0%" style="stop-color:#6702A2;stop-opacity: 1"/>
<stop offset="6.440139%" style="stop-color:#7101B2;stop-opacity: 1"/>
<stop offset="23.52%" style="stop-color:#7704B9;stop-opacity: 1"/>
<stop offset="41.15%" style="stop-color:#8102CA;stop-opacity: 1"/>
<stop offset="59.35%" style="stop-color:#8702D4;stop-opacity: 1"/>
<stop offset="78.47%" style="stop-color:#9102E3;stop-opacity: 1"/>
<stop offset="100%" style="stop-color:#A200FF;stop-opacity: 1"/>
</linearGradient>
<path style="stroke: none; stroke-width: 1; stroke-dasharray: none; stroke-linecap: butt; stroke-dashoffset: 0; stroke-linejoin: miter; stroke-miterlimit: 4; fill: url(#SVGID_SVGID_3__4010); fill-rule: nonzero; opacity: 1;"  transform=" translate(-189.4, -354.85)" d="M 377.9 276.8 c -0.3 -2.6 -1.4 -9.4 -1.6 -10.4 c -1.4 8.3 -5.8 15.6 -11.7 22.1 c -9.3 10.1 -14.6 14.1 -26.1 20 l -103.8 54 c -31.9 16.6 -46.1 24 -78.1 10.9 c -40.1 -16.4 -117.1 -95 -135.2 -174.2 c -29.7 33.4 -28.6 85 3.4 117 l 169.5 169.5 l 1.3 1.3 c 5.1 5.1 10.6 9.3 16.5 12.8 c 6.5 3.9 20.3 9.3 28.7 10.7 c 42.4 -12.8 71.9 -49.2 99.3 -90.5 C 372.1 372 382.3 318.9 377.9 276.8 z" stroke-linecap="round" />
</g>
		<g transform="matrix(1 0 0 1 103.64 -81.95)" id="Layer_1"  >
<linearGradient id="SVGID_SVGID_4__4011" gradientUnits="userSpaceOnUse" gradientTransform="matrix(1 0 0 1 0 0)"  x1="357.0158" y1="106.9035" x2="367.6709" y2="436.7134">
<stop offset="0%" style="stop-color:#6702A2;stop-opacity: 1"/>
<stop offset="6.440139%" style="stop-color:#7101B2;stop-opacity: 1"/>
<stop offset="23.52%" style="stop-color:#7704B9;stop-opacity: 1"/>
<stop offset="41.15%" style="stop-color:#8102CA;stop-opacity: 1"/>
<stop offset="59.35%" style="stop-color:#8702D4;stop-opacity: 1"/>
<stop offset="78.47%" style="stop-color:#9102E3;stop-opacity: 1"/>
<stop offset="100%" style="stop-color:#A200FF;stop-opacity: 1"/>
</linearGradient>
<path style="stroke: none; stroke-width: 1; stroke-dasharray: none; stroke-linecap: butt; stroke-dashoffset: 0; stroke-linejoin: miter; stroke-miterlimit: 4; fill: url(#SVGID_SVGID_4__4011); fill-rule: evenodd; opacity: 0.35;"  transform=" translate(-359.64, -174.05)" d="M 256.8 139.6 l 59.1 44.1 c 1.2 0 2.4 -0.1 3.7 -0.1 c 72.2 0 138.7 29.2 188.1 76.1 c 1 -22.1 -6.8 -44.4 -23.6 -61.2 L 376.2 90.6 c -10.5 -1.5 -21.7 -2.2 -33.2 -2.2 c -52 0 -102.3 14.5 -131.5 30.8 c 3.2 0.4 6.5 1.1 9.9 2.1 C 235.2 125.4 248.2 133.6 256.8 139.6 z" stroke-linecap="round" />
</g>
		<g transform="matrix(1 0 0 1 -59.85 -100.95)" id="Layer_1"  >
<linearGradient id="SVGID_SVGID_5__4012" gradientUnits="userSpaceOnUse" gradientTransform="matrix(1 0 0 1 0 0)"  x1="104.4074" y1="286.5588" x2="247.6994" y2="58.9269">
<stop offset="0%" style="stop-color:#6702A2;stop-opacity: 1"/>
<stop offset="6.440139%" style="stop-color:#7101B2;stop-opacity: 1"/>
<stop offset="23.52%" style="stop-color:#7704B9;stop-opacity: 1"/>
<stop offset="41.15%" style="stop-color:#8102CA;stop-opacity: 1"/>
<stop offset="59.35%" style="stop-color:#8702D4;stop-opacity: 1"/>
<stop offset="78.47%" style="stop-color:#9102E3;stop-opacity: 1"/>
<stop offset="100%" style="stop-color:#A200FF;stop-opacity: 1"/>
</linearGradient>
<path style="stroke: none; stroke-width: 1; stroke-dasharray: none; stroke-linecap: butt; stroke-dashoffset: 0; stroke-linejoin: miter; stroke-miterlimit: 4; fill: url(#SVGID_SVGID_5__4012); fill-rule: evenodd; opacity: 0.35;"  transform=" translate(-196.15, -155.05)" d="M 150.6 243.2 c 0.2 -23.9 0.5 -43.9 0.6 -49.1 c 1.5 -30.1 2.4 -47.3 19.3 -64.9 l -0.5 -0.7 l 3.3 -2.3 c 0.3 -0.2 0.6 -0.4 0.9 -0.6 c 2.6 -2.4 5.4 -4.7 8.6 -7.2 c 32.2 -24.6 87 -39.9 143.1 -39.9 c 3.8 0 7.6 0.1 11.4 0.2 c 10 0.4 19.9 1.2 29.5 2.5 l -53.6 -53.6 c -15.3 -15.3 -35.7 -23.7 -57.5 -23.7 c -21.8 0 -42.2 8.4 -57.5 23.7 L 25.5 200.5 c 9.6 35.6 36 74.4 66.5 105.7 C 108.2 282.3 128 261 150.6 243.2 z" stroke-linecap="round" />
</g>
		<g transform="matrix(1 0 0 1 -212.03 24)" id="Layer_1"  >
<linearGradient id="SVGID_SVGID_6__4013" gradientUnits="userSpaceOnUse" gradientTransform="matrix(1 0 0 1 0 0)"  x1="349.4282" y1="388.7269" x2="76.9447" y2="291.9367">
<stop offset="0%" style="stop-color:#6702A2;stop-opacity: 1"/>
<stop offset="6.440139%" style="stop-color:#7101B2;stop-opacity: 1"/>
<stop offset="23.52%" style="stop-color:#7704B9;stop-opacity: 1"/>
<stop offset="41.15%" style="stop-color:#8102CA;stop-opacity: 1"/>
<stop offset="59.35%" style="stop-color:#8702D4;stop-opacity: 1"/>
<stop offset="78.47%" style="stop-color:#9102E3;stop-opacity: 1"/>
<stop offset="100%" style="stop-color:#A200FF;stop-opacity: 1"/>
</linearGradient>
<path style="stroke: none; stroke-width: 1; stroke-dasharray: none; stroke-linecap: butt; stroke-dashoffset: 0; stroke-linejoin: miter; stroke-miterlimit: 4; fill: url(#SVGID_SVGID_6__4013); fill-rule: nonzero; opacity: 0.35;"  transform=" translate(-43.97, -280)" d="M 83.8 319.2 C 56.3 288 31 248.2 19.9 207.7 c -23.5 32 -20.6 77.1 8 105.7 l 38.9 38.9 C 71.7 340.9 77.4 329.8 83.8 319.2 z" stroke-linecap="round" />
</g>
</g>
</g>
		<g transform="matrix(1 0 0 1 37.1 0)" style="filter: url(#SVGID_4139);"  >
<filter id="SVGID_4139" y="-20%" height="140%" x="-20%" width="140%" >
	<feGaussianBlur in="SourceAlpha" stdDeviation="0"></feGaussianBlur>
	<feOffset dx="0" dy="0" result="oBlur" ></feOffset>
	<feFlood flood-color="rgb(238,95,91)" flood-opacity="1"/>
	<feComposite in2="oBlur" operator="in" />
	<feMerge>
		<feMergeNode></feMergeNode>
		<feMergeNode in="SourceGraphic"></feMergeNode>
	</feMerge>
</filter>
		<text xml:space="preserve" font-family="Barlow" font-size="48.5" font-style="normal" font-weight="100" style="stroke: rgb(0,0,0); stroke-width: 0; stroke-dasharray: none; stroke-linecap: butt; stroke-dashoffset: 0; stroke-linejoin: round; stroke-miterlimit: 4; fill: rgb(18,20,71); fill-rule: nonzero; opacity: 1; white-space: pre;" paint-order="stroke"  ><tspan x="-142.81" y="15.24" >grooming box</tspan></text>
</g>
</g>
</g>
</svg>