<svg width="241" height="229" viewBox="0 0 241 229" fill="none" xmlns="http://www.w3.org/2000/svg">
<path d="M143.35 195.367C142.62 195.047 141.75 192.367 142.57 191.737C143.39 191.107 145.78 192.397 144.48 195.357L143.35 195.367Z" fill="#F0F0F0"/>
<path d="M144.92 197.428C143.25 197.888 141.09 196.127 143.1 195.027C145.11 193.927 147.4 196.758 144.92 197.428Z" fill="#A09C9C"/>
<path d="M144.35 195.807C143.73 195.167 144.72 192.427 146.18 192.297C147.64 192.167 149.48 194.477 145.71 196.367L144.35 195.807Z" fill="#F0F0F0"/>
<path d="M118.13 208.687C117.41 209.027 114.82 207.927 114.88 206.887C114.94 205.847 117.48 204.887 118.88 207.817L118.13 208.687Z" fill="#F0F0F0"/>
<path d="M15.3996 223.867C4.91959 225.107 -1.44042 219.027 0.279576 211.697C2.32442 213.357 4.79602 214.407 7.41045 214.725C10.0249 215.043 12.6761 214.618 15.0596 213.497L15.3996 223.867Z" fill="#A09C9C"/>
<path d="M28.4399 115.687C22.2099 119.687 0.439922 148.957 0.0799219 145.287C-0.280078 141.617 5.07992 114.207 18.0799 102.167C28.6999 92.3469 44.2899 97.4569 44.2899 97.4569L28.4399 115.687Z" fill="#F0F0F0"/>
<path d="M26.5395 116.447C21.3895 119.717 3.33952 143.987 3.06952 140.947C2.79952 137.907 8.98951 117.187 19.7495 107.227C21.9242 105.175 24.507 103.605 27.3295 102.617C28.2476 102.292 29.2448 102.263 30.1799 102.536C31.115 102.809 31.9406 103.369 32.5395 104.137C33.1083 104.894 33.4032 105.822 33.376 106.769C33.3487 107.715 33.0009 108.624 32.3895 109.347L26.5395 116.447Z" fill="#C6C6C6"/>
<path d="M78.2599 117.007C84.2599 121.127 104.17 150.927 104.66 147.267C105.15 143.607 101.27 115.437 88.9199 102.647C78.6399 92.0072 62.9199 97.5672 62.9199 97.5672L78.2599 117.007Z" fill="#F0F0F0"/>
<path d="M81.2597 118.457C85.9997 121.717 101.72 145.257 102.11 142.367C102.5 139.477 98.7297 118.957 88.9797 108.857C87.1806 106.945 85.0095 105.42 82.5997 104.377C81.6655 103.977 80.6275 103.887 79.6382 104.12C78.6489 104.353 77.7605 104.897 77.1035 105.673C76.4466 106.449 76.0557 107.415 75.9885 108.429C75.9212 109.443 76.181 110.452 76.7297 111.307L81.2597 118.457Z" fill="#C6C6C6"/>
<path d="M82.5095 105.078C82.1478 104.918 81.7418 104.888 81.3607 104.994C80.9797 105.1 80.6471 105.334 80.4195 105.658C80.1805 105.986 80.0518 106.382 80.0518 106.788C80.0518 107.194 80.1805 107.589 80.4195 107.918C86.8495 116.688 95.1795 127.458 97.2695 129.058C96.1495 123.168 93.6795 115.348 88.9295 109.908C87.1625 107.854 84.9725 106.206 82.5095 105.078V105.078Z" fill="#A09C9C"/>
<path d="M27.0397 103.748C27.398 103.598 27.7956 103.572 28.1706 103.672C28.5456 103.772 28.877 103.993 29.1131 104.301C29.3493 104.609 29.477 104.987 29.4764 105.375C29.4757 105.763 29.3468 106.14 29.1097 106.448C22.5497 114.818 14.1097 125.088 11.9497 126.628C13.1497 120.998 15.7397 113.548 20.5697 108.358C22.3758 106.38 24.5811 104.809 27.0397 103.748V103.748Z" fill="#A09C9C"/>
<path d="M82.6896 188.247C82.6896 188.247 81.8696 159.527 74.4796 143.527C67.0896 127.527 39.8096 123.827 30.1696 139.007C20.5296 154.187 15.8096 190.707 15.8096 190.707C4.11963 207.317 7.19963 209.577 15.8096 228.247H85.3496C103.82 189.067 82.6896 188.247 82.6896 188.247Z" fill="#E0DFDF"/>
<path d="M63.2498 189.697L77.4698 165.747C77.4698 165.747 81.8398 196.377 81.3198 202.397C74.2398 212.107 70.3198 218.867 66.3198 228.247H59.3198C63.5238 215.859 64.8674 202.679 63.2498 189.697V189.697Z" fill="#F0F0F0"/>
<path d="M86.4795 164.348L63.2495 189.698C64.0674 196.427 64.1077 203.229 63.3695 209.968C69.0995 202.338 75.4495 197.968 78.5295 199.898C79.6295 200.588 80.1795 201.988 80.2495 203.898L81.3195 202.408C81.8395 196.378 86.4795 164.348 86.4795 164.348Z" fill="#E0DFDF"/>
<path d="M42.3499 189.697L27.1999 165.747C27.1999 165.747 22.5499 196.377 23.0999 202.397C30.6499 212.107 35.2499 218.867 39.4399 228.247H46.4399C42.0039 215.911 40.6011 202.689 42.3499 189.697V189.697Z" fill="#F0F0F0"/>
<path d="M25.8196 196.337C29.3296 193.957 35.8996 197.907 41.8196 205.457C41.4903 200.199 41.6677 194.921 42.3496 189.697L19.3496 168.547C19.3496 168.547 22.5296 196.377 23.0796 202.397L23.4596 202.887C23.4296 199.797 24.1696 197.457 25.8196 196.337Z" fill="#E0DFDF"/>
<path d="M53.9697 208.348C42.6897 203.018 10.7497 168.958 11.1597 148.238C11.1597 148.238 29.5597 103.628 40.8397 99.1077C52.1197 94.5877 64.6397 96.0377 70.5897 101.578C76.5397 107.118 93.9497 125.838 95.3497 151.068C95.3497 151.068 91.3497 189.678 53.9697 208.348Z" fill="#C6C6C6"/>
<path d="M53.8897 207.237C43.8897 201.937 15.4197 168.047 15.7897 147.427C15.7897 147.427 29.7897 103.187 39.7897 98.697C49.7897 94.207 65.9897 95.5471 71.2797 101.057C76.5697 106.567 89.4597 125.127 90.7397 150.237C90.7597 150.237 87.1297 188.667 53.8897 207.237Z" fill="#F0F0F0"/>
<path d="M73.4598 153.368C76.7398 150.058 74.8498 144.718 71.0598 145.438C62.1098 147.148 62.5098 151.868 53.6998 151.528C48.3598 151.318 51.9198 149.948 42.6998 145.438C33.4798 140.928 37.8798 150.498 37.8798 150.498C26.3498 134.978 21.1398 164.128 21.2898 174.498C31.5398 190.148 46.8698 204.938 53.9798 208.298C76.4098 197.078 86.8398 178.658 91.5898 165.748C92.9498 134.298 73.4598 153.368 73.4598 153.368Z" fill="#FBFBFB"/>
<path d="M91.4398 158.147C86.6898 171.057 76.9097 191.797 54.4398 203.017C47.4398 199.707 31.8998 183.017 21.6598 167.717C21.3789 169.983 21.2386 172.264 21.2398 174.547C31.4898 190.197 46.8197 206.007 53.9297 209.377C76.3597 198.157 86.7898 178.707 91.5398 165.797C91.6855 163.248 91.6521 160.692 91.4398 158.147Z" fill="#F0F0F0"/>
<path d="M45.8197 134.337H48.6197C48.6197 134.337 48.2897 129.667 46.2497 130.337C44.2097 131.007 45.8197 134.337 45.8197 134.337Z" fill="black"/>
<path d="M62.7397 135.528L65.7397 135.588C65.7397 135.588 67.6197 131.918 65.3597 131.848C63.0997 131.778 62.7397 135.528 62.7397 135.528Z" fill="black"/>
<path d="M30.9296 142.587V143.027C28.7996 142.257 25.9295 144.027 25.4395 146.437L24.2896 145.827C24.8196 143.117 27.9796 141.527 30.9296 142.587Z" fill="#A09C9C"/>
<path d="M118.35 228.787H151.42C158.33 224.397 150.95 220.197 148.06 221.597C148.06 221.597 146.75 214.877 136.85 217.027C136.85 217.027 120.03 211.327 122.37 220.857C119.14 218.987 112.04 223.747 118.35 228.787Z" fill="#F0F0F0"/>
<path d="M128.5 226.177C128.13 224.417 137.75 226.757 150.6 221.477C149.753 221.233 148.85 221.275 148.03 221.597C147.961 221.302 147.863 221.014 147.74 220.737C145.42 222.737 140.81 224.027 135.51 224.027C129.08 224.027 123.68 222.027 122.13 219.417C122.152 219.903 122.222 220.385 122.34 220.857C121.703 220.515 120.978 220.376 120.26 220.457C123.35 221.117 129.04 224.457 128.06 225.057C126.28 226.197 121.9 228.177 117.99 227.847L117.2 227.747C117.544 228.112 117.919 228.446 118.32 228.747H151.35C151.918 228.397 152.447 227.988 152.93 227.527C147.48 228.527 128.88 227.957 128.5 226.177Z" fill="#E0DFDF"/>
<path d="M136.99 212.308C134.38 210.528 135.49 207.868 136.42 206.468C136.42 206.468 132.03 208.708 133.15 211.978C134.27 215.248 132.57 215.888 132.57 215.888L136.29 217.138C139.19 215.928 139.61 214.078 136.99 212.308Z" fill="#F0F0F0"/>
<path d="M120.74 208.837C119.98 210.397 117.24 210.837 117.74 208.627C118.24 206.417 121.86 206.527 120.74 208.837Z" fill="#A09C9C"/>
<path d="M119.16 208.167C118.27 208.217 116.86 205.677 117.71 204.487C118.56 203.297 121.53 203.437 120.47 207.487L119.16 208.167Z" fill="#F0F0F0"/>
<path d="M55.7398 155.977C54.2698 155.837 45.3298 149.057 46.1598 147.417C46.9898 145.777 59.4898 143.877 64.5798 147.417C67.5198 149.527 55.7398 155.977 55.7398 155.977Z" fill="#A09C9C"/>
<path opacity="0.5" d="M61.4595 120.618C61.4595 120.618 64.1895 130.188 74.1795 131.968C74.7195 130.808 76.3595 128.138 76.3595 128.138C73.6979 127.679 71.1635 126.662 68.923 125.154C66.6824 123.646 64.7864 121.681 63.3595 119.388L61.4595 120.618Z" fill="#9F9D9D"/>
<path opacity="0.5" d="M52.2795 117.898C52.2795 117.898 49.6995 127.508 39.7795 129.428C38.9656 128.202 38.2179 126.933 37.5396 125.628C40.1864 125.13 42.6973 124.076 44.9058 122.535C47.1143 120.994 48.9699 119 50.3495 116.688L52.2795 117.898Z" fill="#9F9D9D"/>
<path d="M50.2797 157.118C47.4971 157.398 44.7005 156.743 42.3317 155.256C39.963 153.769 38.1572 151.535 37.1998 148.908C34.5898 142.598 23.1998 146.698 29.7398 151.558L30.7398 151.208C25.3698 147.208 34.3498 144.058 37.2998 150.548C39.3798 156.598 44.9097 157.678 50.3997 157.418L50.2797 157.118Z" fill="#A09C9C"/>
<path d="M56.1198 150.298C52.8484 150.395 49.5898 149.848 46.5298 148.688C48.2298 151.227 54.5298 155.858 55.7398 155.978C55.7398 155.978 63.3798 151.758 64.8098 149.048C61.9995 149.93 59.0649 150.352 56.1198 150.298Z" fill="#C6C6C6"/>
<path d="M53.5397 153.887C54.4797 154.247 55.1497 152.517 54.4497 151.887C53.7497 151.257 49.3897 149.797 49.5497 150.687C49.6797 151.377 52.4097 153.467 53.5397 153.887Z" fill="#F0F0F0"/>
<path d="M57.6697 153.828C56.7997 154.078 56.4197 152.288 57.1097 151.718C57.7997 151.148 61.8397 150.208 61.5897 151.068C61.3497 151.758 58.7197 153.528 57.6697 153.828Z" fill="#F0F0F0"/>
<path d="M36.5299 156.237C37.0799 158.237 40.0199 162.327 48.9099 161.167C48.9099 161.167 43.3899 165.167 37.9699 161.647C33.7999 158.907 36.5299 156.237 36.5299 156.237Z" fill="#A09C9C"/>
<path d="M61.0196 149.167C62.3672 149.167 63.4596 148.764 63.4596 148.267C63.4596 147.77 62.3672 147.367 61.0196 147.367C59.672 147.367 58.5796 147.77 58.5796 148.267C58.5796 148.764 59.672 149.167 61.0196 149.167Z" fill="#888585"/>
<path d="M59.2497 146.907C59.2497 146.627 58.4497 146.397 57.4597 146.397C56.4697 146.397 55.6597 146.627 55.6597 146.907C55.6597 147.187 56.4697 147.417 57.4597 147.417C58.4497 147.417 59.2497 147.187 59.2497 146.907Z" fill="#888585"/>
<path d="M73.1194 228.248H60.1895C60.1895 228.248 65.2495 224.348 69.4895 224.348C70.0045 224.289 70.5261 224.351 71.0125 224.531C71.4988 224.71 71.9362 225.002 72.2893 225.381C72.6425 225.76 72.9016 226.218 73.0458 226.716C73.19 227.213 73.2152 227.738 73.1194 228.248V228.248Z" fill="#F0F0F0"/>
<path d="M93.3497 228.247H77.6997C77.6997 228.247 83.8097 222.497 88.9397 222.497C94.0697 222.497 93.3497 228.247 93.3497 228.247Z" fill="#F0F0F0"/>
<path d="M31.6699 228.248H43.5799C43.5799 228.248 39.5799 224.348 35.6399 224.348C31.6999 224.348 31.6699 228.248 31.6699 228.248Z" fill="#F0F0F0"/>
<path d="M7.60986 228.247H24.2899C24.2899 228.247 18.6499 222.367 13.1799 222.367C7.70987 222.367 7.60986 228.247 7.60986 228.247Z" fill="#F0F0F0"/>
<path d="M134.97 212.587C136.52 215.907 134.64 216.267 133.02 216.077L136.49 217.137C139.39 215.927 140.16 213.937 137.54 212.137C136.668 211.633 136.03 210.804 135.766 209.832C135.502 208.86 135.633 207.824 136.13 206.947C135.07 208.297 133.95 210.377 134.97 212.587Z" fill="#E0DFDF"/>
<path d="M131.17 215.638C132.642 216.79 134.461 217.41 136.33 217.398C137.629 217.415 138.916 217.135 140.09 216.578L136.4 216.768L131.17 215.638Z" fill="#A09C9C"/>
<path d="M26.5497 117.747L30.1897 110.577C26.9822 112.732 24.4043 115.7 22.7197 119.177L26.5497 117.747Z" fill="#E0DFDF"/>
<path d="M23.9396 123.007L27.6096 115.857C24.3933 118.001 21.8021 120.958 20.0996 124.427L23.9396 123.007Z" fill="#E0DFDF"/>
<path d="M21.9098 128.727L24.8198 121.237C21.6246 123.433 19.1811 126.557 17.8198 130.187L21.9098 128.727Z" fill="#E0DFDF"/>
<path d="M18.8995 134.817L21.8195 127.327C18.838 129.785 16.5637 132.991 15.2295 136.617L18.8995 134.817Z" fill="#E0DFDF"/>
<path d="M15.3497 141.928L18.2697 134.438C15.2914 136.898 13.0177 140.103 11.6797 143.728L15.3497 141.928Z" fill="#E0DFDF"/>
<path d="M13.2095 148.168L15.4195 140.438C12.6849 143.168 10.7218 146.573 9.72949 150.308L13.2095 148.168Z" fill="#E0DFDF"/>
<path d="M13.3498 155.777L12.1098 147.837C10.779 151.465 10.434 155.382 11.1098 159.187L13.3498 155.777Z" fill="#E0DFDF"/>
<path d="M16.0398 161.977L12.7898 154.617C12.4327 158.466 13.1021 162.341 14.7298 165.847L16.0398 161.977Z" fill="#E0DFDF"/>
<path d="M83.9698 119.527L80.5898 113.087C83.5799 114.943 86.0016 117.586 87.5898 120.727L83.9698 119.527Z" fill="#E0DFDF"/>
<path d="M86.3995 124.197L82.9795 117.787C85.9651 119.631 88.3866 122.26 89.9795 125.387L86.3995 124.197Z" fill="#E0DFDF"/>
<path d="M88.2796 129.357L85.5796 122.607C88.5673 124.505 90.8695 127.308 92.1496 130.607L88.2796 129.357Z" fill="#E0DFDF"/>
<path d="M91.0696 134.817L88.3696 128.077C91.1476 130.216 93.2795 133.082 94.5296 136.357L91.0696 134.817Z" fill="#E0DFDF"/>
<path d="M93.7596 141.407L91.0596 134.657C93.836 136.802 95.9674 139.67 97.2196 142.947L93.7596 141.407Z" fill="#E0DFDF"/>
<path d="M94.8398 146.768L92.8398 139.768C95.3918 142.166 97.2268 145.227 98.1399 148.608L94.8398 146.768Z" fill="#E0DFDF"/>
<path d="M94.4297 152.007L94.6497 144.627C96.3352 147.713 97.1314 151.206 96.9497 154.717L94.4297 152.007Z" fill="#E0DFDF"/>
<path d="M93.2495 158.447L95.1395 151.207C96.0594 154.637 96.0318 158.252 95.0595 161.667L93.2495 158.447Z" fill="#E0DFDF"/>
<path d="M116.234 102.735C116.664 102.489 121.512 100.437 145.634 111.682C145.564 111.778 145.534 111.823 145.534 111.823C145.534 111.823 120.457 120.268 115.544 109.864C114.076 106.767 114.497 104.634 116.192 102.759L116.234 102.735Z" fill="#A09C9C"/>
<path d="M197.309 106.991C192.068 111.396 183.85 114.594 175.919 110.342C177.173 109.541 178.467 108.716 179.787 107.863C187.751 102.746 194.766 106.17 197.309 106.991Z" fill="#A09C9C"/>
<path d="M206.696 52.8042C212.05 97.3893 199.326 105.481 197.909 106.71C197.499 107.066 197.333 107.04 196.713 106.88L196.702 106.886C194.078 106.191 187.751 102.746 179.787 107.862C178.467 108.715 177.172 109.54 175.919 110.341C167.795 115.493 161.234 119.124 156.508 117.017C152.499 114.972 148.884 113.202 145.634 111.681C121.512 100.436 116.663 102.489 116.234 102.735C116.732 102.463 121.305 99.9284 127.462 95.471C127.483 95.459 127.504 95.447 127.509 95.4306C135.739 89.4662 146.76 80.0672 154.682 67.9765C160.076 59.7548 165.352 38.9119 175.531 34.8223C196.453 27.0175 205.827 43.7353 206.696 52.8042Z" fill="#F0F0F0"/>
<path d="M183.562 52.0226C184.212 50.3077 184.149 48.6942 183.421 48.4187C182.694 48.1432 181.577 49.31 180.928 51.0248C180.278 52.7397 180.342 54.3532 181.069 54.6287C181.797 54.9043 182.913 53.7374 183.562 52.0226Z" fill="#E0DFDF"/>
<path d="M196.884 54.2099C197.344 52.4349 197.107 50.8377 196.353 50.6424C195.6 50.4471 194.617 51.7278 194.157 53.5028C193.696 55.2779 193.934 56.8751 194.687 57.0703C195.44 57.2656 196.423 55.985 196.884 54.2099Z" fill="#E0DFDF"/>
<path d="M188.775 60.7277C188.666 60.7276 188.56 60.6902 188.475 60.6217C188.39 60.5531 188.331 60.4576 188.308 60.351C188.223 59.9649 187.843 58.8226 187.242 58.6528C186.64 58.483 185.46 59.1422 184.983 59.488C184.88 59.5624 184.752 59.5929 184.627 59.5729C184.502 59.5529 184.389 59.4839 184.315 59.3811C184.241 59.2784 184.21 59.1503 184.23 59.025C184.25 58.8997 184.319 58.7876 184.422 58.7131C184.61 58.5769 186.295 57.3916 187.502 57.7321C188.76 58.0872 189.197 59.9377 189.243 60.1475C189.258 60.2174 189.257 60.2898 189.241 60.3594C189.224 60.429 189.192 60.494 189.148 60.5497C189.103 60.6053 189.046 60.6502 188.981 60.681C188.917 60.7118 188.846 60.7278 188.775 60.7277H188.775Z" fill="#F0F0F0"/>
</svg>
