<svg width="20" height="20" viewBox="0 0 20 20" fill="none" xmlns="http://www.w3.org/2000/svg">
<g clip-path="url(#clip0)">
<path d="M19.5441 2.98665e-07H17.6922C17.6287 -7.1353e-05 17.5659 0.01275 17.5075 0.0376869C17.4491 0.0626238 17.3964 0.0991567 17.3526 0.14507C17.3088 0.190984 17.2747 0.245321 17.2525 0.304788C17.2303 0.364255 17.2204 0.427611 17.2234 0.491016L17.3797 3.72383C16.4712 2.65331 15.3404 1.79359 14.066 1.20446C12.7915 0.615333 11.404 0.310954 9.99999 0.3125C4.66171 0.3125 0.308581 4.66914 0.312487 10.0074C0.316394 15.3543 4.65233 19.6875 9.99999 19.6875C12.3988 19.6909 14.713 18.8009 16.4914 17.191C16.5389 17.1485 16.5772 17.0967 16.6041 17.0389C16.6309 16.9811 16.6456 16.9184 16.6474 16.8546C16.6491 16.7909 16.6379 16.7275 16.6143 16.6682C16.5907 16.609 16.5552 16.5552 16.5101 16.5102L15.182 15.182C15.098 15.098 14.9851 15.049 14.8663 15.045C14.7475 15.0411 14.6317 15.0823 14.5422 15.1605C13.4927 16.0838 12.1868 16.6653 10.7985 16.8275C9.41014 16.9896 8.00535 16.7248 6.7714 16.0682C5.53744 15.4116 4.53294 14.3944 3.8918 13.1524C3.25066 11.9103 3.00334 10.5023 3.18283 9.11611C3.36231 7.72991 3.96006 6.43134 4.89639 5.39353C5.83273 4.35571 7.06315 3.62796 8.42365 3.30728C9.78414 2.9866 11.2101 3.08823 12.5113 3.59863C13.8126 4.10903 14.9273 5.00394 15.707 6.16406L11.741 5.97383C11.6776 5.97081 11.6142 5.98071 11.5548 6.00291C11.4953 6.02511 11.441 6.05916 11.3951 6.103C11.3491 6.14683 11.3126 6.19953 11.2877 6.2579C11.2627 6.31627 11.2499 6.3791 11.25 6.44258V8.29453C11.25 8.41885 11.2994 8.53808 11.3873 8.62599C11.4752 8.7139 11.5944 8.76328 11.7187 8.76328H19.5441C19.6684 8.76328 19.7877 8.7139 19.8756 8.62599C19.9635 8.53808 20.0129 8.41885 20.0129 8.29453V0.46875C20.0129 0.34443 19.9635 0.225202 19.8756 0.137294C19.7877 0.0493863 19.6684 2.98665e-07 19.5441 2.98665e-07V2.98665e-07Z" fill="black"/>
</g>
<defs>
<clipPath id="clip0">
<rect width="20" height="20" fill="white"/>
</clipPath>
</defs>
</svg>
