<svg width="20" height="20" viewBox="0 0 20 20" fill="none" xmlns="http://www.w3.org/2000/svg">
<g clip-path="url(#clip0)">
<path d="M0.455856 2.98665e-07H2.30781C2.37128 -7.1353e-05 2.43411 0.01275 2.49249 0.0376869C2.55086 0.0626238 2.60356 0.0991567 2.64739 0.14507C2.69122 0.190984 2.72527 0.245321 2.74748 0.304788C2.76968 0.364255 2.77957 0.427611 2.77656 0.491016L2.62031 3.72383C3.52877 2.65331 4.65956 1.79359 5.93401 1.20446C7.20846 0.615333 8.59597 0.310954 10 0.3125C15.3383 0.3125 19.6914 4.66914 19.6875 10.0074C19.6836 15.3543 15.3477 19.6875 10 19.6875C7.60115 19.6909 5.287 18.8009 3.50859 17.191C3.46108 17.1485 3.42275 17.0967 3.39593 17.0389C3.36911 16.9811 3.35437 16.9184 3.35262 16.8546C3.35086 16.7909 3.36213 16.7275 3.38572 16.6682C3.40932 16.609 3.44474 16.5552 3.48984 16.5102L4.81796 15.182C4.90202 15.098 5.01486 15.049 5.13365 15.045C5.25244 15.0411 5.36831 15.0823 5.45781 15.1605C6.50724 16.0838 7.81317 16.6653 9.20151 16.8275C10.5898 16.9896 11.9946 16.7248 13.2286 16.0682C14.4625 15.4116 15.467 14.3944 16.1082 13.1524C16.7493 11.9103 16.9966 10.5023 16.8172 9.11611C16.6377 7.72991 16.0399 6.43134 15.1036 5.39353C14.1673 4.35571 12.9368 3.62796 11.5763 3.30728C10.2158 2.9866 8.78992 3.08823 7.48867 3.59863C6.18741 4.10903 5.07264 5.00394 4.29296 6.16406L8.25898 5.97383C8.32239 5.97081 8.38574 5.98071 8.44521 6.00291C8.50468 6.02511 8.55901 6.05916 8.60493 6.103C8.65084 6.14683 8.68737 6.19953 8.71231 6.2579C8.73725 6.31627 8.75007 6.3791 8.75 6.44258V8.29453C8.75 8.41885 8.70061 8.53808 8.6127 8.62599C8.5248 8.7139 8.40557 8.76328 8.28125 8.76328H0.455856C0.331535 8.76328 0.212307 8.7139 0.124399 8.62599C0.0364913 8.53808 -0.0128956 8.41885 -0.0128956 8.29453V0.46875C-0.0128956 0.34443 0.0364913 0.225202 0.124399 0.137294C0.212307 0.0493863 0.331535 2.98665e-07 0.455856 2.98665e-07V2.98665e-07Z" fill="black"/>
</g>
<defs>
<clipPath id="clip0">
<rect width="20" height="20" fill="white" transform="matrix(-1 0 0 1 20 0)"/>
</clipPath>
</defs>
</svg>
